<svg id="Capa_1" data-name="Capa 1" xmlns="http://www.w3.org/2000/svg" viewBox="0 0 512 512"><defs><style>.cls-1{fill:#4bc999;}.cls-2{fill:#bfe8f7;}.cls-3{fill:#fff;}.cls-4{fill:#91d3e2;}</style></defs><rect class="cls-1" x="416.6" y="25" width="71.1" height="69.74" transform="translate(90.1 337.2) rotate(-45)"/><rect class="cls-2" x="390.4" y="75.8" width="42.9" height="48.79" transform="translate(49.8 320.5) rotate(-45)"/><path class="cls-3" d="M253,64h0c119.3,0,216,96.7,216,216V502H37V280C37,160.7,133.7,64,253,64Z" transform="translate(0 0)"/><path class="cls-4" d="M253,64h0c119.3,0,216,96.7,216,216V502H37V280C37,160.7,133.7,64,253,64Z" transform="translate(0 0)"/><rect class="cls-3" x="37" y="283" width="432" height="56"/><rect class="cls-3" x="296" y="386" width="88" height="116"/><path d="M252.5,123.7h.5a10,10,0,0,0,0-20h-.5a10,10,0,0,0,0,20Z" transform="translate(0 0)"/><path d="M114.2,187.7a9.7,9.7,0,0,0,6,2.1,9.9,9.9,0,0,0,8-4,157.6,157.6,0,0,1,82.9-56.5,10,10,0,1,0-5.4-19.2,176.7,176.7,0,0,0-93.4,63.6A9.9,9.9,0,0,0,114.2,187.7Z" transform="translate(0 0)"/><path d="M229,376H140.3a10,10,0,1,0,0,20H229a10,10,0,0,0,0-20Z" transform="translate(0 0)"/><path d="M101.3,376a10.3,10.3,0,0,0-7.1,2.9,10.1,10.1,0,0,0,0,14.2,10.3,10.3,0,0,0,7.1,2.9,10,10,0,0,0,0-20Z" transform="translate(0 0)"/><path d="M502,492H479V280a224.3,224.3,0,0,0-53-145.4l18.3-18.2.3.3a9.8,9.8,0,0,0,7.1,2.9,9.6,9.6,0,0,0,7-2.9L509,66.4a9.8,9.8,0,0,0,0-14.1L459.7,2.9a10.1,10.1,0,0,0-7-2.9,10.3,10.3,0,0,0-7.1,2.9L395.3,53.2a10.1,10.1,0,0,0-2.9,7.1,9.9,9.9,0,0,0,2.9,7.1l.3.3L374.2,89.1A226.1,226.1,0,0,0,27,280V492H10a10,10,0,0,0,0,20H502a10,10,0,0,0,0-20ZM383,329V293h28v36Zm-48,0V293h28v36Zm-48,0V293h28v36Zm-48,0V293h28v36Zm-48,0V293h28v36Zm-48,0V293h28v36Zm-48,0V293h28v36Zm-48,0V293H75v36Zm384-36h28v36H431ZM452.7,24.2l35.1,35.1L451.7,95.5l-.4-.3h0L416.8,60.7h0l-.3-.3ZM409.8,81.9l20.3,20.3-17.6,17.7a229.8,229.8,0,0,0-21.7-19.1ZM253,74c111.2,0,202.2,88.6,205.9,199H47.1C50.8,162.6,141.8,74,253,74Zm53,418V396h68v96Zm88,0V386a10,10,0,0,0-10-10H296a10,10,0,0,0-10,10V492H47V349H459V492Z" transform="translate(0 0)"/></svg>