<svg id="Capa_1" data-name="Capa 1" xmlns="http://www.w3.org/2000/svg" viewBox="0 0 512 511.9"><defs><style>.cls-1{fill:#bfe8f7;}.cls-2{fill:#f44a82;}.cls-3{fill:#78caef;}.cls-4{fill:#4bc999;}.cls-5{fill:#f9df8a;}.cls-6{fill:#f9c55f;}</style></defs><path class="cls-1" d="M415.9,241.9l4,19.4a224.3,224.3,0,0,1-61,203.5h0l-83-82.9L130.1,236.1,47.2,153.2h0A224.1,224.1,0,0,1,250.7,92.1l19.4,4Z" transform="translate(0 0)"/><path class="cls-2" d="M203,309l72.9,72.9L413.5,244.4A302.3,302.3,0,0,0,501.3,10.6h.1A302.1,302.1,0,0,0,267.7,98.5L130.1,236.1l73,73Z" transform="translate(0 0)"/><rect class="cls-3" x="168.1" y="238.4" width="41" height="170.37" transform="translate(-173.5 228.1) rotate(-45)"/><circle class="cls-4" cx="320.3" cy="190.9" r="58.5"/><path class="cls-5" d="M174.1,425.7A62,62,0,0,0,86.4,338a15.9,15.9,0,0,1-1.3,1.3C43.4,382.7,51.4,459.2,52.2,460s77.2,8.7,120.6-33Z" transform="translate(0 0)"/><path class="cls-6" d="M174.1,381.9A31,31,0,0,0,130.2,338l-.6.7c-20.8,21.7-16.9,59.9-16.5,60.3s38.7,4.4,60.3-16.5Z" transform="translate(0 0)"/><path d="M251.9,190.9a68.5,68.5,0,1,0,20-48.4A68,68,0,0,0,251.9,190.9Zm68.5-48.5a48.5,48.5,0,1,1-34.3,14.2A48.2,48.2,0,0,1,320.4,142.4Z" transform="translate(0 0)"/><path d="M426.8,245A312.3,312.3,0,0,0,511.4,11.4a9.7,9.7,0,0,0-2.9-7.7h-.1a10,10,0,0,0-7.8-3A312.1,312.1,0,0,0,267,85.3l-14.3-3A233.5,233.5,0,0,0,40.2,146.1a10,10,0,0,0-3,7.1,10.2,10.2,0,0,0,3,7.1l88.5,88.5-21.9,21.9a10.1,10.1,0,0,0,0,14.2l25,25h-1.6A71.6,71.6,0,0,0,79.3,331a18.5,18.5,0,0,1-1.4,1.4c-23.5,24.5-32.1,58.1-35.1,81.9a224.3,224.3,0,0,0-1.7,32.8c.4,16.4,1.8,17.7,4,19.9s3.5,3.5,19.8,3.9h5a219.1,219.1,0,0,0,27.8-1.8c23.9-3,57.6-11.5,82-34.9l1.5-1.5a71.9,71.9,0,0,0,21-52.5l25.1,25.1a10.1,10.1,0,0,0,7,2.9,10.3,10.3,0,0,0,7.1-2.9l21.9-22,88.5,88.5a9.9,9.9,0,0,0,7.1,2.9,9.7,9.7,0,0,0,7-2.9,233.4,233.4,0,0,0,63.8-212.6Zm65-224.8a292,292,0,0,1-17.7,111.2L410.8,68.1a10,10,0,0,0-14.1,0,10.1,10.1,0,0,0,0,14.2l69.2,69.2a293.1,293.1,0,0,1-59.5,85.8L275.9,367.8l-5.5-5.6L144.3,236.1l27.5-27.5L219,255.9a10.1,10.1,0,0,0,14.2,0,10.1,10.1,0,0,0,0-14.2l-47.3-47.2,88.9-88.9A292.2,292.2,0,0,1,491.8,20.2ZM248.7,101.9l1.2.3L130.1,222,61.5,153.4A213.6,213.6,0,0,1,248.7,101.9ZM173.2,360a20.6,20.6,0,0,1-6.2,14.8c-.1.2-.3.3-.5.5-12.1,11.7-32.4,14.2-43.9,14.2,0-11.3,2.4-31.6,14.3-43.9l.4-.5a20.9,20.9,0,0,1,14.9-6.1,20.6,20.6,0,0,1,14.8,6.1h0A21,21,0,0,1,173.2,360ZM167,418.7h0l-1.1,1.1C146,438.9,118,446.2,98,449a197.7,197.7,0,0,1-36.7,1.8,194,194,0,0,1,1.8-37.1c2.8-19.8,10.2-47.7,29.3-67.5l1.1-1.1a51.5,51.5,0,0,1,30.4-14.8,4.6,4.6,0,0,0-.7.7,3,3,0,0,0-.8.8c-10.1,10.4-16.6,25.6-18.9,43.8a115.5,115.5,0,0,0-.9,17.1c.2,7.8.7,10.6,3.5,13.4s5.9,3.2,13.3,3.4H122a118.9,118.9,0,0,0,14.5-.9c18.2-2.3,33.4-8.8,43.8-18.8l.9-.8h0l.6-.7A50.9,50.9,0,0,1,167,418.7Zm67.3-34.6L181.2,331h0L128,277.8,142.8,263l53,52.9h.1l53.3,53.3Zm124.4,66.4-68.6-68.6L409.9,262.1l.2,1.2A213.1,213.1,0,0,1,358.7,450.5Z" transform="translate(0 0)"/><path d="M67.9,298.3a10,10,0,0,0-14.1,0L2.9,349.2a10,10,0,0,0,0,14.1,9.8,9.8,0,0,0,7.1,2.9,9.8,9.8,0,0,0,7.1-2.9l50.8-50.8A10.1,10.1,0,0,0,67.9,298.3Z" transform="translate(0 0)"/><path d="M181.7,462l-32.9,32.9A10,10,0,1,0,163,509l32.8-32.8a10.1,10.1,0,0,0,0-14.2A10,10,0,0,0,181.7,462Z" transform="translate(0 0)"/><path d="M216.7,431.1a10,10,0,0,0,0,20,10.3,10.3,0,0,0,7.1-2.9,10.1,10.1,0,0,0,0-14.2A10.3,10.3,0,0,0,216.7,431.1Z" transform="translate(0 0)"/><path d="M253.1,265.8a9.7,9.7,0,0,0-7.1,2.9,9.9,9.9,0,0,0-2.9,7.1,9.7,9.7,0,0,0,2.9,7,9.8,9.8,0,0,0,14.1,0,9.7,9.7,0,0,0,2.9-7,9.9,9.9,0,0,0-2.9-7.1A9.7,9.7,0,0,0,253.1,265.8Z" transform="translate(0 0)"/></svg>