<svg id="Capa_1" data-name="Capa 1" xmlns="http://www.w3.org/2000/svg" viewBox="0 0 512 512"><defs><style>.cls-1{fill:#f44a82;}.cls-2{fill:#4bc999;}</style></defs><circle class="cls-1" cx="256" cy="256" r="52"/><rect class="cls-2" x="19.7" y="445.6" width="46.6" height="46.64" transform="translate(-319 167.7) rotate(-45)"/><rect class="cls-2" x="445.7" y="19.6" width="46.6" height="46.64" transform="translate(107 344.2) rotate(-45)"/><path d="M390.6,149.3c-21.4-25.9-50.8-43-82.7-48.1-27.1-4.3-54.4.6-76.9,13.8-24.6,14.4-42.8,37.9-52.5,67.9-12.1,37.3-8.1,72.5,11.4,99.3,15.3,21.1,39.1,34.5,62.8,35.7H256a62,62,0,0,0,61.3-52.9c4.8,17.3,4,37.1-2.8,57.8-14.1,43.5-48.7,69.5-90.5,69.5a105.5,105.5,0,0,1-16.7-1.4c-50.9-8-102.2-54.1-102.2-139,0-127.1,77.4-190.9,123.6-217.7a9.9,9.9,0,0,0,3.6-13.6A10,10,0,0,0,218.7,17C168.8,45.9,85.1,114.9,85.1,252c0,43.5,12.5,81.7,36.4,110.7,21.3,25.9,50.7,43,82.7,48.1a123.9,123.9,0,0,0,19.1,1.5A114,114,0,0,0,281.1,397c24.6-14.4,42.7-37.9,52.5-67.9,12.1-37.3,8-72.5-11.4-99.3-15.4-21.1-39.3-34.6-63-35.7H256a62.1,62.1,0,0,0-61.3,52.7c-4.8-17.2-3.9-36.9,2.8-57.6,16-49.2,58.1-75.9,107.3-68.1C355.7,129,407,175.1,407,260c0,125.1-75.5,188.9-120.5,215.8a10,10,0,0,0,5.1,18.6,9.6,9.6,0,0,0,5.1-1.4C345.4,463.9,427,395,427,260,427,216.5,414.4,178.3,390.6,149.3ZM256,214a42,42,0,1,1-42,42A42,42,0,0,1,256,214Z"/><path d="M252.8,492.5h-.2a10,10,0,0,0,3.3,19.4,11.3,11.3,0,0,0,3.2-.5l.5-.2a10,10,0,0,0-6.8-18.8Z"/><path d="M255.7,20.2a10.2,10.2,0,0,0,3.4-.6h.3a10,10,0,0,0-6.5-19l-.6.3a10,10,0,0,0,3.4,19.4Z"/><path d="M50.1,429a10.2,10.2,0,0,0-7.1-3,10,10,0,0,0-7.1,3l-33,32.9A10.5,10.5,0,0,0,0,469a10.3,10.3,0,0,0,2.9,7.1l33,33A10.3,10.3,0,0,0,43,512a10.5,10.5,0,0,0,7.1-2.9l32.9-33a10.1,10.1,0,0,0,0-14.2ZM43,487.9,24.1,469,43,450.2,61.8,469Z"/><path d="M509.1,35.9l-33-33A10.3,10.3,0,0,0,469,0a10.5,10.5,0,0,0-7.1,2.9L429,35.9a10.1,10.1,0,0,0,0,14.2L461.9,83a10.2,10.2,0,0,0,7.1,3,10,10,0,0,0,7.1-3l33-32.9A10.5,10.5,0,0,0,512,43,10.3,10.3,0,0,0,509.1,35.9ZM469,61.8,450.2,43,469,24.1,487.9,43Z"/><path d="M472,438H458V423.6a10,10,0,0,0-20,0V438H424a10,10,0,0,0,0,20h14v14.4a10,10,0,0,0,20,0V458h14a10,10,0,0,0,0-20Z"/><path d="M40,74H54V88.4a10,10,0,0,0,20,0V74H88a10,10,0,0,0,0-20H74V39.6a10,10,0,1,0-20,0V54H40a10,10,0,0,0,0,20Z"/><path d="M37.5,227.5a10.3,10.3,0,0,0,7.1-2.9,10.1,10.1,0,0,0,2.9-7.1,9.9,9.9,0,0,0-10-10,9.7,9.7,0,0,0-7,2.9,10,10,0,0,0-3,7.1,10.1,10.1,0,0,0,10,10Z"/><path d="M462,291.8a9.8,9.8,0,0,0-3,7,10,10,0,0,0,3,7.1,9.7,9.7,0,0,0,7,2.9,10.1,10.1,0,0,0,7.1-2.9,10.3,10.3,0,0,0,2.9-7.1,9.7,9.7,0,0,0-2.9-7,10.2,10.2,0,0,0-7.1-3A9.8,9.8,0,0,0,462,291.8Z"/><path d="M79.7,387.2a10,10,0,0,0-16.4,11.5c2.1,2.9,4.2,5.8,6.4,8.5a9.9,9.9,0,0,0,14.1,1.5,9.9,9.9,0,0,0,1.5-14C83.4,392.3,81.5,389.8,79.7,387.2Z"/><path d="M43.7,361.1a10,10,0,0,0,9.4,6.5,10.2,10.2,0,0,0,3.4-.6,10,10,0,0,0,6-12.8c-1.1-2.9-2.1-5.9-3-8.9A10,10,0,0,0,40.3,351C41.3,354.4,42.5,357.8,43.7,361.1Z"/><path d="M43.8,318.8a10,10,0,0,0,9.4-10.5c-.1-3.1-.2-6.3-.2-9.5a10,10,0,0,0-20,0c0,3.6.1,7.1.3,10.6a9.9,9.9,0,0,0,9.9,9.4Z"/><path d="M292.9,437.5a10,10,0,0,0,6.1-2.1c2.8-2.2,5.5-4.4,8.2-6.8a10,10,0,0,0-13.2-15c-2.3,2.1-4.8,4.1-7.2,5.9a10.1,10.1,0,0,0,6.1,18Z"/><path d="M327.2,401.3a9.7,9.7,0,0,0,8.1-4.2c2-2.8,4-5.8,5.9-8.8a10,10,0,0,0-17-10.6c-1.7,2.7-3.4,5.4-5.2,7.9a10,10,0,0,0,2.4,13.9A9.7,9.7,0,0,0,327.2,401.3Z"/><path d="M120,425.7l-7.7-5.3a10,10,0,1,0-11.8,16.1c2.9,2.1,5.8,4.1,8.8,6a9.7,9.7,0,0,0,5.4,1.6,10,10,0,0,0,5.3-18.4Z"/><path d="M254.6,438.2c-2.9,1.2-5.8,2.3-8.8,3.3A10,10,0,0,0,249,461a11.3,11.3,0,0,0,3.2-.5c3.4-1.2,6.7-2.4,10-3.8a10,10,0,0,0,5.4-13.1A9.9,9.9,0,0,0,254.6,438.2Z"/><path d="M162.8,444.3q-4.5-1.2-9-2.7a10,10,0,0,0-6.2,19l10.2,3,2.5.3a10,10,0,0,0,2.5-19.6Z"/><path d="M209.3,448.7q-4.7.3-9.3.3h-.1a10,10,0,1,0,0,20h.1c3.5,0,7.1-.1,10.5-.3a10.1,10.1,0,0,0,9.4-10.7A10,10,0,0,0,209.3,448.7Z"/><path d="M468.3,150.9a10,10,0,1,0-18.7,6.9c1,2.9,2,5.9,2.9,8.9a10.1,10.1,0,0,0,9.6,7.2,9.2,9.2,0,0,0,2.8-.5,10,10,0,0,0,6.8-12.4C470.7,157.6,469.5,154.2,468.3,150.9Z"/><path d="M442.3,104.8a10,10,0,0,0-14.1-1.5,9.9,9.9,0,0,0-1.5,14c1.9,2.4,3.8,4.9,5.6,7.5a10,10,0,0,0,13.9,2.4,10,10,0,0,0,2.5-13.9C446.6,110.4,444.5,107.5,442.3,104.8Z"/><path d="M468.2,193.2a10,10,0,0,0-9.4,10.5c.1,3.1.2,6.3.2,9.5a10,10,0,1,0,20,0c0-3.6-.1-7.1-.3-10.6A10,10,0,0,0,468.2,193.2Z"/><path d="M392,86.3l7.7,5.3a9.9,9.9,0,0,0,5.9,1.9,10,10,0,0,0,5.9-18c-2.9-2.1-5.8-4.1-8.8-6A10,10,0,1,0,392,86.3Z"/><path d="M176.7,114.9c-2,2.8-4,5.8-5.9,8.8a10,10,0,0,0,3.2,13.8,10.4,10.4,0,0,0,5.3,1.5,10.1,10.1,0,0,0,8.5-4.7c1.7-2.7,3.4-5.4,5.2-7.9a10,10,0,0,0-16.3-11.5Z"/><path d="M253.6,74.5a9.9,9.9,0,0,0,3.8-.7c2.9-1.2,5.8-2.3,8.8-3.3a10,10,0,0,0-6.4-19c-3.4,1.2-6.7,2.4-10,3.8a10,10,0,0,0,3.8,19.2Z"/><path d="M349.2,67.7q4.5,1.2,9,2.7a10.6,10.6,0,0,0,3.1.5,10,10,0,0,0,3.1-19.5q-5.1-1.6-10.2-3A10,10,0,0,0,342,55.6,9.9,9.9,0,0,0,349.2,67.7Z"/><path d="M213,76.6c-2.8,2.2-5.5,4.4-8.2,6.8a10,10,0,0,0-.9,14.1,10.1,10.1,0,0,0,7.5,3.4,9.7,9.7,0,0,0,6.6-2.5c2.4-2.1,4.8-4.1,7.2-5.9A10,10,0,0,0,213,76.6Z"/><path d="M302.1,63.3h.6q4.7-.3,9.3-.3h.1a10,10,0,0,0,0-20H312c-3.5,0-7.1.1-10.5.3a10,10,0,0,0,.6,20Z"/></svg>