<svg id="Layer_1" data-name="Layer 1" xmlns="http://www.w3.org/2000/svg" viewBox="0 0 444.2 511"><defs><style>.cls-1{fill:#46525e;}.cls-2{fill:#596775;}.cls-3{fill:#87f8f4;}.cls-4{fill:#00e7ec;}</style></defs><path class="cls-1" d="M80.9,404H235.6v30H80.9a15,15,0,1,1,0-30Z" transform="translate(-33.9 0)"/><path class="cls-1" d="M69.9,323.2l24.6,24.6a11.6,11.6,0,0,0,16.4,0L143.7,315a11.6,11.6,0,0,0,0-16.4L119.1,274a11.6,11.6,0,0,0-16.4,0L69.9,306.8A11.6,11.6,0,0,0,69.9,323.2Z" transform="translate(-33.9 0)"/><path class="cls-2" d="M128.1,191.2a69.6,69.6,0,0,0,.7,99c27.4,26.7,71.4,25.7,98.4-1.4a10.4,10.4,0,0,0,0-14.9l-17.1-66.3-66.3-17.1a10.6,10.6,0,0,0-14.9,0Z" transform="translate(-33.9 0)"/><path class="cls-1" d="M227.2,273.9h0l-14.7-57.1-11.6-11.6-57.1-14.7a10.6,10.6,0,0,0-14.9,0l-.8.7a74.3,74.3,0,0,0-11.2,14.7l68.6,68.6c-21.3,11.9-47.5,12.2-68.7.2a70.9,70.9,0,0,0,12,15.5c22.6,22,56.5,25.2,82.8,10.4a66.7,66.7,0,0,0,15.6-11.8A10.5,10.5,0,0,0,227.2,273.9Z" transform="translate(-33.9 0)"/><path class="cls-1" d="M160.8,364.4h34.7a11.6,11.6,0,0,0,11.6-11.6V318a11.6,11.6,0,0,0-11.6-11.6H160.8A11.6,11.6,0,0,0,149.2,318v34.8A11.6,11.6,0,0,0,160.8,364.4Z" transform="translate(-33.9 0)"/><path class="cls-1" d="M41.7,257V222.2a11.6,11.6,0,0,1,11.6-11.6H99.7a11.6,11.6,0,0,1,11.6,11.6V257a11.6,11.6,0,0,1-11.6,11.6H53.3A11.6,11.6,0,0,1,41.7,257Z" transform="translate(-33.9 0)"/><path class="cls-2" d="M390.5,63.4l-41-40.9L324.9,47,300.3,71.6l8.2,8.2h0l16.4,16.4,8.2,8.2a11.5,11.5,0,0,0,16.4,0Z" transform="translate(-33.9 0)"/><path class="cls-1" d="M390.5,78.4A14.5,14.5,0,0,1,379.9,74l-41-41a15,15,0,1,1,21.2-21.1l40.9,41A14.8,14.8,0,0,1,401,74,14.4,14.4,0,0,1,390.5,78.4Z" transform="translate(-33.9 0)"/><path class="cls-3" d="M374.1,125.6l-82-81.9a11.5,11.5,0,0,0-16.4,0L144.5,174.8a11.6,11.6,0,0,0,0,16.4l82,82a11.6,11.6,0,0,0,16.4,0L374.1,142A11.6,11.6,0,0,0,374.1,125.6Z" transform="translate(-33.9 0)"/><path class="cls-4" d="M374.1,125.6l-82-81.9a11.5,11.5,0,0,0-16.4,0l-13,12.9,74.2,74.2a4.3,4.3,0,0,1-2.6,7.3,105.5,105.5,0,0,0-92.4,93.8l-28.4,28.3,13,13a11.6,11.6,0,0,0,16.4,0c138.9-138.9,131.3-131.3,131.9-132A11.7,11.7,0,0,0,374.1,125.6Z" transform="translate(-33.9 0)"/><path class="cls-1" d="M346.6,318A75.4,75.4,0,1,1,422,242.7,75.4,75.4,0,0,1,346.6,318Z" transform="translate(-33.9 0)"/><path class="cls-3" d="M371.2,218.1a34.7,34.7,0,1,0-49.1,49.1,52.4,52.4,0,0,1,9.7,60.3c8.8,6.4,17.5,13,25.2,20.7,9.3,8.8,18.2,17.8,27.1,26.7a121.4,121.4,0,0,0-12.9-156.8Z" transform="translate(-33.9 0)"/><path class="cls-3" d="M331.5,318A115.9,115.9,0,0,0,215.6,434l115.9,34.7,116-34.7A116,116,0,0,0,331.5,318Z" transform="translate(-33.9 0)"/><path class="cls-4" d="M447.5,434c0-1.2-.1-2.4-.1-3.6v-.8c-.1-.9-.1-1.9-.2-2.8v-1l-.3-3.1v-.3c-.1-1.2-.3-2.4-.4-3.7s-.1-.2-.1-.3a7.6,7.6,0,0,0-.3-2.1c-.1-.5-.1-1-.2-1.6A116.1,116.1,0,0,0,331.5,318a35,35,0,0,0,24.8,33.6A86.4,86.4,0,0,1,412.1,404H219.5a118.6,118.6,0,0,0-3.9,30l99.8,29.9h32.3Z" transform="translate(-33.9 0)"/><path class="cls-3" d="M447.5,434H169.2a23,23,0,0,0-23.1,23.1v23.2a23.1,23.1,0,0,0,23.1,23.2H447.5a23.1,23.1,0,0,0,23.1-23.2V457.1A23,23,0,0,0,447.5,434Z" transform="translate(-33.9 0)"/><path class="cls-4" d="M447.5,434h-6.8v39.6H146.1v6.7a23.1,23.1,0,0,0,23.1,23.2H447.5a23.1,23.1,0,0,0,23.1-23.2V457.1A23,23,0,0,0,447.5,434Z" transform="translate(-33.9 0)"/><path d="M355.3,242.7a8.7,8.7,0,1,1-8.7-8.7A8.7,8.7,0,0,1,355.3,242.7Z" transform="translate(-33.9 0)"/><path d="M447.5,426.5H223.4c3.8-56.3,50.9-101,108.1-101a108.2,108.2,0,0,1,105.4,82.7,7.5,7.5,0,1,0,14.5-3.6,124,124,0,0,0-41.7-66.1,128.6,128.6,0,0,0,4.7-34.4,111.5,111.5,0,0,0-.7-12.9,81.9,81.9,0,0,0,15.7-48.5,83,83,0,0,0-64.6-80.8l14.6-14.6a19.2,19.2,0,0,0,0-27L360.1,101l18.5-18.5a22.4,22.4,0,0,0,27.7-34.9l-41-41A21.8,21.8,0,0,0,349.5,0a22.1,22.1,0,0,0-15.9,6.6A22.1,22.1,0,0,0,327,22.5a21.8,21.8,0,0,0,1.2,7.2L308.5,49.5,297.4,38.4a19.1,19.1,0,0,0-27,0L139.3,169.5a18.4,18.4,0,0,0-5.4,10.6,17.8,17.8,0,0,0-10.3,5.1,2.7,2.7,0,0,0-.7.8h0a79.4,79.4,0,0,0-14.3,19.6,19.1,19.1,0,0,0-9.2-2.4H53a19.2,19.2,0,0,0-19.1,19.1V257A19.1,19.1,0,0,0,53,276H90.4L64.5,301.9a19.1,19.1,0,0,0,0,27l24.6,24.6a19.1,19.1,0,0,0,27,0l25.6-25.6v25.2a19.1,19.1,0,0,0,19.1,19.1h34.7a19.1,19.1,0,0,0,19.1-19.1V318.3a19.2,19.2,0,0,0-2.5-9.5,74,74,0,0,0,20.4-14.7,17.2,17.2,0,0,0,5.1-10.3,18.8,18.8,0,0,0,10.6-5.3l17.6-17.6A83.1,83.1,0,0,0,304,313.7a123.8,123.8,0,0,0-90.1,82.8H80.9a22.5,22.5,0,1,0,0,44.9h62a31,31,0,0,0-4.3,15.7v23.2A30.7,30.7,0,0,0,169.2,511H447.5a30.7,30.7,0,0,0,30.6-30.7V457.1A30.6,30.6,0,0,0,447.5,426.5Zm-50.9-97.4a120.9,120.9,0,0,0-52.2-17.9,55.3,55.3,0,0,0,.4-7.1,59.3,59.3,0,0,0-17.5-42.2,27.1,27.1,0,0,1-7.9-19.3,27,27,0,0,1,27.2-27.2,27.1,27.1,0,0,1,19.3,7.9,113.5,113.5,0,0,1,33.5,80.8A110.1,110.1,0,0,1,396.6,329.1ZM344.2,17.2a7.4,7.4,0,0,1,10.6,0l40.9,40.9a7.4,7.4,0,0,1,0,10.6,7.3,7.3,0,0,1-10.5,0l-41-41A7.3,7.3,0,0,1,344.2,17.2Zm-7,24.7,30.4,30.4L349.5,90.5,319.1,60.1ZM48.9,257V222.2a4.1,4.1,0,0,1,4.1-4.1H99.4a4.1,4.1,0,0,1,3.6,2.1,75.4,75.4,0,0,0-2.7,20.7,71.1,71.1,0,0,0,2.4,18.5,4.3,4.3,0,0,1-3.3,1.7H53A4.1,4.1,0,0,1,48.9,257Zm89.4,53.1-32.8,32.8a4.1,4.1,0,0,1-5.8,0L75.1,318.3a4.1,4.1,0,0,1,0-5.8l32.8-32.8a4.7,4.7,0,0,1,2.5-1.1,76.3,76.3,0,0,0,13.2,17,75.4,75.4,0,0,0,15.9,11.8A4.5,4.5,0,0,1,138.3,310.1Zm61.3,8.2v34.8a4.1,4.1,0,0,1-4.1,4.1H160.8a4.1,4.1,0,0,1-4.1-4.1V318.3a4,4,0,0,1,1.8-3.4,77.3,77.3,0,0,0,18.5,2.2,79.5,79.5,0,0,0,20-2.6A4,4,0,0,1,199.6,318.3Zm37.7-50.1a4.1,4.1,0,0,1-5.5-.3l-52.6-52.6a7.5,7.5,0,0,0-10.6,10.6h0l52.6,52.6c1.2,1.1,1.6,1.4,1.6,2.8a2.9,2.9,0,0,1-.8,2.3c-24.3,24.2-63.8,24.8-88,1.3a62.3,62.3,0,0,1-.6-88.4h0l.8-.7a3,3,0,0,1,4.3,0l8.9,8.9a7.5,7.5,0,0,0,10.6,0,7.5,7.5,0,0,0,0-10.6l-8.2-8.2a4.3,4.3,0,0,1-1.2-2.9,4.5,4.5,0,0,1,1.2-2.9L281,49a4.1,4.1,0,0,1,5.8,0l82,81.9a4.1,4.1,0,0,1,0,5.8l-23.2,23.2a82.8,82.8,0,0,0-81.8,81.8C263.4,242.2,237.8,267.8,237.3,268.2Zm41.4-25.5a67.9,67.9,0,1,1,130.7,25.8,127,127,0,0,0-32.9-55.7,42.2,42.2,0,1,0-59.7,59.7,44.7,44.7,0,0,1,13.1,31.6,30,30,0,0,1-.3,4.3C300.2,300.7,278.7,273.7,278.7,242.7ZM73.4,419a7.6,7.6,0,0,1,7.5-7.5H210.2a122.9,122.9,0,0,0-1.8,15H80.9A7.6,7.6,0,0,1,73.4,419Zm389.8,61.3A15.7,15.7,0,0,1,447.5,496H169.2a15.7,15.7,0,0,1-15.7-15.7V457.1a15.8,15.8,0,0,1,15.7-15.7H447.5a15.8,15.8,0,0,1,15.7,15.7Z" transform="translate(-33.9 0)"/></svg>