<svg id="Layer_1" data-name="Layer 1" xmlns="http://www.w3.org/2000/svg" viewBox="0 0 512 406"><defs><style>.cls-1{fill:#f44a82;}.cls-2{fill:#d33682;}.cls-3{fill:#78caef;}</style></defs><path class="cls-1" d="M306,255.5a50,50,0,1,1-50-50A50,50,0,0,1,306,255.5Z" transform="translate(0 -53)"/><path class="cls-2" d="M279.1,211.2a49.9,49.9,0,0,1-67.4,67.4,50,50,0,1,0,67.4-67.4Z" transform="translate(0 -53)"/><path class="cls-3" d="M176,85.5a25,25,0,1,1-25-25A25,25,0,0,1,176,85.5Z" transform="translate(0 -53)"/><path class="cls-3" d="M484,298.5a25,25,0,1,1-25-25A25,25,0,0,1,484,298.5Z" transform="translate(0 -53)"/><path class="cls-3" d="M103,426.5a25,25,0,1,1-25-25A25,25,0,0,1,103,426.5Z" transform="translate(0 -53)"/><path d="M208,239.7a7.5,7.5,0,0,0-8.7,6.1,57.5,57.5,0,1,0,15.4-30.3,7.5,7.5,0,1,0,10.8,10.4,42.5,42.5,0,1,1-11.4,22.4A7.5,7.5,0,0,0,208,239.7Z" transform="translate(0 -53)"/><path d="M512,255.5c0-31.6-43.7-58.8-119.9-74.6C351.5,172.5,304.4,168,256,168H243.5a619.1,619.1,0,0,1,64.2-49c56-36.8,102.6-50.1,118.7-34,11.9,11.8,8.1,40.3-10.4,78a7.4,7.4,0,0,0,3.4,10,7.5,7.5,0,0,0,10-3.4c22.2-45.1,24.8-78.1,7.6-95.2-22.3-22.4-72.5-10.7-137.5,32-26.1,17.1-53.1,38.3-79.4,62.3-41,1.9-79.6,7-113,14.9q-4.6-8.1-8.7-15.9C78.1,128.3,73.3,97.3,85.6,85.1c7.7-7.7,21.3-7.7,33.4-5.5a38.1,38.1,0,0,0-.5,5.9,32.5,32.5,0,0,0,59.7,17.7A455.7,455.7,0,0,1,228.6,136a7.3,7.3,0,0,0,4.4,1.5,7.5,7.5,0,0,0,4.5-13.6,472.2,472.2,0,0,0-54.2-35c.1-1.1.2-2.3.2-3.4a32.5,32.5,0,0,0-58.2-19.9c-22.6-4.9-39.5-1.9-50.3,8.9S62.1,98,64.6,116.6c2.3,16.5,9.1,36,20.5,58.1,2.2,4.2,4.5,8.5,7,12.9q-7.3,2-14.1,4.2c-23.6,7.6-42.3,16.6-55.5,26.6C7.6,229.8,0,242.2,0,255.5c0,23.6,23.8,44.5,68.8,60.6l4.4,1.5a7.3,7.3,0,0,0,2.5.4,7.5,7.5,0,0,0,7.1-5,7.6,7.6,0,0,0-4.7-9.6L73.9,302C36.5,288.6,15,271.7,15,255.5s25.3-35.8,67.6-49.4Q91,203.4,100,201a551.3,551.3,0,0,0,38.6,54.5,559.6,559.6,0,0,0-37.4,52.6C79.5,342.9,66.8,373.4,64.3,397A32.5,32.5,0,0,0,78,459a32.2,32.2,0,0,0,24.7-11.4h3.2c31.5,0,78.6-21.5,131.1-60.2a7.6,7.6,0,0,0,1.6-10.5,7.5,7.5,0,0,0-10.5-1.5c-47.2,34.7-90.2,55.4-118.2,57.1a29.1,29.1,0,0,0,.6-6,32.5,32.5,0,0,0-30.7-32.4c5.2-32.5,30.5-78.5,68.5-126.7,14.1,16.8,29.4,33.6,45.8,50,47.5,47.4,98.2,86.2,142.7,109,22.1,11.4,41.6,18.2,58.1,20.5a87.9,87.9,0,0,0,11.1.8c13.2,0,23.6-3.8,31-11.2,22.4-22.3,10.7-72.5-32-137.5l-2.1-3.2a228.6,228.6,0,0,0-14.3-20.3c-41.4-51.6-70.1-77.5-71.3-78.6a7.5,7.5,0,0,0-10,11.2c.3.2,29,26.3,69.6,76.8A220.8,220.8,0,0,1,390.4,304l2,3.2c36.8,56,50.1,102.6,34,118.7-12.2,12.3-43.2,7.5-82.7-12.8-43.2-22.2-92.6-59.9-139-106.3-16.8-16.9-32.5-34.1-46.7-51.3,14.1-17.1,29.8-34.4,46.7-51.3,7.1-7,14.3-13.9,21.5-20.6,9.8-.4,19.8-.6,29.8-.6,47.4,0,93.4,4.3,133,12.6,65.6,13.6,108,37.1,108,59.9,0,8.6-6.2,16.3-13,22.3a32.5,32.5,0,1,0,7.5,20.7,38.4,38.4,0,0,0-.7-6.9C504.8,280.5,512,268.4,512,255.5ZM151,68a17.5,17.5,0,1,1-17.5,17.5A17.6,17.6,0,0,1,151,68ZM95.5,426.5a17.5,17.5,0,1,1-22.1-16.9h.2A16.1,16.1,0,0,1,78,409,17.6,17.6,0,0,1,95.5,426.5Zm98.6-232.9c-16.3,16.4-31.7,33.2-45.8,50a536.1,536.1,0,0,1-33-46.4c26.5-6,56.2-10.2,87.8-12.4ZM459,316a17.5,17.5,0,1,1,17.5-17.5A17.6,17.6,0,0,1,459,316Z" transform="translate(0 -53)"/></svg>