<svg id="Layer_1" data-name="Layer 1" xmlns="http://www.w3.org/2000/svg" viewBox="0 0 512 512"><defs><style>.cls-1{fill:#cb9aed;}.cls-2{fill:#a97ace;}.cls-3{fill:#8b9ba9;}.cls-4{fill:#6c7a88;}.cls-5{fill:#00f4f5;}.cls-6{fill:#00bac0;}.cls-7{fill:#60f375;}.cls-8{fill:#00bd4f;}</style></defs><path class="cls-1" d="M16.4,438.4A40.7,40.7,0,1,0,80,489.2L217.3,324.3l-29.6-29.6C9.9,442.8,20.2,433.7,16.4,438.4Z" transform="translate(0 0)"/><path class="cls-2" d="M196.1,303.1h0l-1.8,2L56.9,470.1l-.3.4a10.6,10.6,0,0,1-7.2,3.9H48.2a11.1,11.1,0,0,1-6.7-2.3,29.6,29.6,0,0,0-18.6-6.6,30.3,30.3,0,0,0-15,4A40.7,40.7,0,0,0,80,489.2L217.3,324.3Z" transform="translate(0 0)"/><path class="cls-3" d="M168.5,271.6l-12.6,10.6a29.9,29.9,0,0,0-4.4,41.6,227.5,227.5,0,0,0,36.7,36.7,29.9,29.9,0,0,0,41.6-4.4l28.1-33.6-68.4-68.4Z" transform="translate(0 0)"/><path class="cls-3" d="M504.5,191.8C504.5,293.5,422,376,320.2,376S136,293.5,136,191.8,218.5,7.5,320.2,7.5A184.3,184.3,0,0,1,504.5,191.8Z" transform="translate(0 0)"/><path class="cls-4" d="M427.7,42.1a30,30,0,0,0,1.6,40.6c60.2,60.1,60.2,158,0,218.1a154.4,154.4,0,0,1-218.1,0,29.8,29.8,0,0,0-40.6-1.6A183.9,183.9,0,0,0,320.2,376c101.8,0,184.3-82.5,184.3-184.2A183.9,183.9,0,0,0,427.7,42.1Z" transform="translate(0 0)"/><path class="cls-5" d="M320.2,323.5c-72.6,0-131.7-59.1-131.7-131.7S247.6,60,320.2,60A131.9,131.9,0,0,1,452,191.8C452,264.4,392.9,323.5,320.2,323.5Z" transform="translate(0 0)"/><path class="cls-6" d="M402.2,88.6A131.7,131.7,0,0,1,217.1,273.7a131.7,131.7,0,0,0,103.1,49.8c72.7,0,131.8-59.1,131.8-131.7A131.8,131.8,0,0,0,402.2,88.6Z" transform="translate(0 0)"/><path class="cls-7" d="M284.2,103.6a35.8,35.8,0,0,0-35.7,35.7,15,15,0,0,0,30,0,5.8,5.8,0,0,1,5.7-5.7,15,15,0,0,0,0-30Z" transform="translate(0 0)"/><path class="cls-8" d="M233.5,203.6a15,15,0,0,0,0,30,5.7,5.7,0,0,1,5.7,5.7,15,15,0,0,0,30,0A35.7,35.7,0,0,0,233.5,203.6Z" transform="translate(0 0)"/><path class="cls-7" d="M384.2,203.6a15,15,0,0,0-15,15,5.6,5.6,0,0,1-5.7,5.7,15,15,0,0,0,0,30,35.7,35.7,0,0,0,35.7-35.7A15,15,0,0,0,384.2,203.6Z" transform="translate(0 0)"/><path class="cls-8" d="M319.5,273a5.8,5.8,0,0,1,0-8.1,14.9,14.9,0,0,0,0-21.2,15.1,15.1,0,0,0-21.2,0,35.8,35.8,0,0,0,0,50.5A15,15,0,0,0,319.5,273Z" transform="translate(0 0)"/><path class="cls-7" d="M340.4,161.6a14.9,14.9,0,0,0-21.2,0l-25.9,25.8a15.1,15.1,0,0,0,0,21.2,14.7,14.7,0,0,0,10.6,4.4,14.5,14.5,0,0,0,10.6-4.4l25.9-25.8A15.1,15.1,0,0,0,340.4,161.6Z" transform="translate(0 0)"/><path class="cls-8" d="M390.4,127.4l-25.9-25.8a14.9,14.9,0,0,0-21.2,0,15.1,15.1,0,0,0,0,21.2l25.9,25.8a14.5,14.5,0,0,0,10.6,4.4,14.7,14.7,0,0,0,10.6-4.4A15.1,15.1,0,0,0,390.4,127.4Z" transform="translate(0 0)"/><path d="M320.2,0C214.5,0,128.5,86,128.5,191.8A191.7,191.7,0,0,0,220,355.2h-.1a21.8,21.8,0,0,1-13.1,4.2c-8.5,0-12.9-4.3-13.9-4.8l-.7-.5a219.6,219.6,0,0,1-34.3-34.3c-3.3-4.2-5.3-8.5-5.3-14.4a7.5,7.5,0,0,0-7.5-7.4H145a7.4,7.4,0,0,0-7.4,7.6h0a37,37,0,0,0,8.4,23.3,233,233,0,0,0,17.4,19.7c4.4,4.3,8.9,8.4,13.6,12.4h0L74.2,484.5a33.2,33.2,0,1,1-51-42.6c.1-.3,2.1-2.3,17.4-15l93.2-77.6a7.4,7.4,0,0,0,.9-10.5,7.6,7.6,0,0,0-10.6-1L25.3,420.1C16.8,427.3,0,438.7,0,463.8A48.1,48.1,0,0,0,48.2,512h0a48.4,48.4,0,0,0,37.7-18.1h0L189,370a38,38,0,0,0,17.7,4.4h.1a37,37,0,0,0,27-11.5,191.5,191.5,0,0,0,86.4,20.6c105.8,0,191.8-86,191.8-191.7S426,0,320.2,0Zm0,368.5A177,177,0,0,1,235.6,347h0a176.6,176.6,0,0,1-92.1-155.1C143.5,94.3,222.8,15,320.2,15S497,94.3,497,191.8,417.7,368.5,320.2,368.5Z" transform="translate(0 0)"/><path d="M320.2,52.5C243.5,52.5,181,115,181,191.8S243.5,331,320.2,331s139.3-62.5,139.3-139.2S397,52.5,320.2,52.5Zm0,263.5A124.3,124.3,0,0,1,196,191.8c0-68.6,55.7-124.3,124.2-124.3A124.4,124.4,0,0,1,444.5,191.8C444.5,260.3,388.8,316,320.2,316Z" transform="translate(0 0)"/><path d="M306.7,118.6a22.5,22.5,0,0,0-22.5-22.5A43.3,43.3,0,0,0,241,139.3a22.5,22.5,0,0,0,45,1.8A22.6,22.6,0,0,0,306.7,118.6ZM271,139.3a7.5,7.5,0,0,1-15,0,28.3,28.3,0,0,1,28.2-28.2,7.5,7.5,0,0,1,0,15A13.3,13.3,0,0,0,271,139.3Z" transform="translate(0 0)"/><path d="M233.5,196.1a22.5,22.5,0,0,0-1.7,45,22.5,22.5,0,0,0,44.9-1.8A43.2,43.2,0,0,0,233.5,196.1Zm20.7,50.7a7.5,7.5,0,0,1-7.5-7.5,13.3,13.3,0,0,0-13.2-13.2,7.5,7.5,0,0,1,0-15,28.2,28.2,0,0,1,28.2,28.2A7.4,7.4,0,0,1,254.2,246.8Z" transform="translate(0 0)"/><path d="M384.2,196.1a22.6,22.6,0,0,0-22.4,20.8,22.5,22.5,0,0,0,1.7,44.9,43.3,43.3,0,0,0,43.3-43.2A22.6,22.6,0,0,0,384.2,196.1Zm-20.7,50.7a7.5,7.5,0,0,1,0-15,13.3,13.3,0,0,0,13.3-13.2,7.5,7.5,0,0,1,7.4-7.5,7.6,7.6,0,0,1,7.6,7.5A28.3,28.3,0,0,1,363.5,246.8Z" transform="translate(0 0)"/><path d="M325.8,238.4a22.5,22.5,0,0,0-31.8,0A42.9,42.9,0,0,0,281.3,269c0,17,11.3,37.1,28.6,37.1,19.2,0,29.5-22.6,17.1-37.1A22.5,22.5,0,0,0,325.8,238.4Zm-10.6,39.9a7.5,7.5,0,1,1-10.6,10.6,28.1,28.1,0,0,1,0-39.9,7.5,7.5,0,0,1,12.8,5.3c0,6.1-6.1,6-6.1,14.7A13.1,13.1,0,0,0,315.2,278.3Z" transform="translate(0 0)"/><path d="M288,182.1a22.5,22.5,0,0,0,0,31.8,22.5,22.5,0,0,0,31.8,0l25.9-25.8a22.5,22.5,0,0,0,0-31.8h0a22.5,22.5,0,0,0-31.8,0Zm41.8-17.4a7.5,7.5,0,0,1,5.3,12.8l-25.9,25.8a7.5,7.5,0,0,1-10.6,0,7.5,7.5,0,0,1,0-10.6l25.9-25.8A7.5,7.5,0,0,1,329.8,164.7Z" transform="translate(0 0)"/><path d="M363.9,153.9a22.5,22.5,0,0,0,31.8,0,22.5,22.5,0,0,0,0-31.8L369.8,96.3a22.5,22.5,0,0,0-31.8,0,22.5,22.5,0,0,0,0,31.8Zm-15.3-47a7.5,7.5,0,0,1,10.6,0l25.9,25.8a7.5,7.5,0,0,1,0,10.6,7.1,7.1,0,0,1-5.3,2.2,7.5,7.5,0,0,1-5.3-2.2l-25.9-25.8a7.5,7.5,0,0,1,0-10.6Z" transform="translate(0 0)"/><path d="M233,165.5a7.5,7.5,0,1,1-7.5-7.5A7.5,7.5,0,0,1,233,165.5Z" transform="translate(0 0)"/><path d="M323,85.5a7.5,7.5,0,1,1-7.5-7.5A7.5,7.5,0,0,1,323,85.5Z" transform="translate(0 0)"/><path d="M433,175.5a7.5,7.5,0,1,1-7.5-7.5A7.5,7.5,0,0,1,433,175.5Z" transform="translate(0 0)"/><path d="M373,285.5a7.5,7.5,0,0,1-15,0,7.5,7.5,0,0,1,15,0Z" transform="translate(0 0)"/><path d="M373,185.5a7.5,7.5,0,1,1-7.5-7.5A7.5,7.5,0,0,1,373,185.5Z" transform="translate(0 0)"/><path d="M273,275.5a7.5,7.5,0,0,1-15,0,7.5,7.5,0,0,1,15,0Z" transform="translate(0 0)"/></svg>