<svg id="Capa_1" data-name="Capa 1" xmlns="http://www.w3.org/2000/svg" viewBox="0 0 512 512"><defs><style>.cls-1{fill:#78caef;}.cls-2{fill:#28d05b;}.cls-3{fill:#6c7a88;}.cls-4{fill:#8b9ba9;}.cls-5{fill:#f9c55f;}</style></defs><circle class="cls-1" cx="210" cy="302" r="200"/><path class="cls-2" d="M210,102A200.1,200.1,0,0,0,20,239.3h85.7a30.5,30.5,0,0,0,26.1-14.7l18.1-29.9A30.5,30.5,0,0,1,176,180h0a30.5,30.5,0,0,0,28.3-19.3l17.1-43.4s3.3-2.7,7.4-6.6a66.5,66.5,0,0,0,7-7.1A219.3,219.3,0,0,0,210,102Z" transform="translate(0 0)"/><path class="cls-2" d="M410,302a200.1,200.1,0,0,0-87.6-165.5,16.6,16.6,0,0,0-1.9,1.8l-13.7,15.9a14.5,14.5,0,0,0-.1,18.9h0a14.5,14.5,0,0,1-3.3,21.7l-29.3,18.6a22.6,22.6,0,0,0-10.6,19.2v11.5a14.6,14.6,0,0,1-7.1,12.6l-28,16.5a50,50,0,0,0,1.6,87.1l11,5.9a13.4,13.4,0,0,0,3.8,1.4l12.1,2.6A25.4,25.4,0,0,1,277,395v16.6a25.9,25.9,0,0,1-5,15.2l-26.6,35.8,26.9,29.5A200,200,0,0,0,410,302Z" transform="translate(0 0)"/><path class="cls-2" d="M73.8,311.8,66,293.9a29.7,29.7,0,0,0-21.1-17.2L12.6,270A199.6,199.6,0,0,0,56.7,430.4l3.5-10.5a40.9,40.9,0,0,1,13.1-19.1l39.4-31.9a13.8,13.8,0,0,0,.6-21Z" transform="translate(0 0)"/><path class="cls-3" d="M143.9,290.4a55,55,0,1,1,77.8,77.7Z" transform="translate(0 0)"/><path class="cls-3" d="M411.3,52.8l48.1,48.1L449,111.3a34,34,0,0,1-48.1,0h0a34,34,0,0,1,0-48.1Z" transform="translate(0 0)"/><path class="cls-4" d="M355.8,112l44.4,44.4a19.6,19.6,0,0,1,0,27.6L271.6,312.6a19.6,19.6,0,0,1-27.6,0l-44.4-44.4a19.4,19.4,0,0,1,0-27.6L328.2,112A19.6,19.6,0,0,1,355.8,112Z" transform="translate(0 0)"/><path class="cls-5" d="M341.4,295.8l42-42a20,20,0,0,1,28.3,0l84.5,84.5a20,20,0,0,1,0,28.3l-42,42a20,20,0,0,1-28.3,0l-84.5-84.5A20,20,0,0,1,341.4,295.8Z" transform="translate(0 0)"/><path class="cls-5" d="M216.2,170.6l42-42a20,20,0,0,0,0-28.3L173.7,15.9a19.9,19.9,0,0,0-28.3,0l-42,41.9a20,20,0,0,0,0,28.3l84.5,84.5A20,20,0,0,0,216.2,170.6Z" transform="translate(0 0)"/><path d="M377.8,411.8a10.1,10.1,0,0,0-14.1,1.9h-.1a10.1,10.1,0,0,0,1.9,13.9,10.1,10.1,0,0,0,14.1-1.8c0-.1.1-.1.1-.2A10.1,10.1,0,0,0,377.8,411.8Z" transform="translate(0 0)"/><path d="M503.2,331.3l-84.5-84.5a29.9,29.9,0,0,0-42.4,0l-13.9,13.9L350,248.3l57.3-57.2a29.6,29.6,0,0,0,0-41.8l-15.1-15.1,9.5-9.6a43.9,43.9,0,0,0,54.4-6.2L466.5,108a10,10,0,0,0,0-14.1L418.3,45.7a9.7,9.7,0,0,0-7-2.9,9.9,9.9,0,0,0-7.1,2.9L393.8,56.1a44.1,44.1,0,0,0-6.2,54.4L378,120l-15.1-15.1a29.7,29.7,0,0,0-41.8,0l-57.2,57.3-12.6-12.6,13.9-13.9a30,30,0,0,0,0-42.4L180.8,8.8a30.1,30.1,0,0,0-42.5,0L96.4,50.7a30.1,30.1,0,0,0,0,42.5l20.5,20.5A209.7,209.7,0,0,0,0,302C0,417.8,94.2,512,210,512a209,209,0,0,0,145.4-58.5,10,10,0,1,0-13.8-14.4,191.3,191.3,0,0,1-66.3,41.4l-9.8-10.7a13,13,0,0,1-.8-16.4L280,432.7a35.4,35.4,0,0,0,7-21.1V374.4a10,10,0,0,0-20,0v37.2a15.8,15.8,0,0,1-3,9.2l-15.4,20.7a32.9,32.9,0,0,0,2.2,41.8l3.2,3.6a195.3,195.3,0,0,1-44,5.1A189.5,189.5,0,0,1,68,428.1l1.7-5.1a30.7,30.7,0,0,1,9.9-14.4l39.4-32a23.8,23.8,0,0,0,1.1-36l-38-34.7-6.9-16a40,40,0,0,0-28.2-23l-22.8-4.7c.9-4.4,2-8.6,3.2-12.9h75.8a45,45,0,0,0,38.4-21.7l18.1-29.8a10,10,0,0,0-17.2-10.3l-18,29.8a25,25,0,0,1-21.3,12H34.4a189.7,189.7,0,0,1,97.5-100.6l49,48.9a29.9,29.9,0,0,0,42.4,0l13.9-13.9,12.5,12.6-57.2,57.2a29.6,29.6,0,0,0-6.9,30.8,65.1,65.1,0,0,0-48.8,19,9.9,9.9,0,0,0-2.9,7.1,9.7,9.7,0,0,0,2.9,7l77.8,77.8a10,10,0,0,0,14.1,0,64.6,64.6,0,0,0,19-48.6,31,31,0,0,0,10.1,1.7,29.3,29.3,0,0,0,20.9-8.6l57.2-57.2,12.4,12.3-13.9,13.9a30.1,30.1,0,0,0,0,42.5l84.4,84.4a30.1,30.1,0,0,0,42.5,0l41.9-41.9A30,30,0,0,0,503.2,331.3ZM408,70.2l3.3-3.3,34,34-3.3,3.3a24,24,0,0,1-34,0,23.5,23.5,0,0,1-7.1-17A23.8,23.8,0,0,1,408,70.2ZM42.9,286.5a19.6,19.6,0,0,1,13.9,11.4l7.9,17.9a8.1,8.1,0,0,0,2.4,3.4l39.5,36.1a4,4,0,0,1,1.2,3,3.5,3.5,0,0,1-1.4,2.8L67,393.1a50.1,50.1,0,0,0-13.4,16.6A188.4,188.4,0,0,1,20,302a190.4,190.4,0,0,1,1.1-20.1ZM251.1,121.6l-13.9,13.9L195,93.2l20.9-20.9,35.2,35.1A10.1,10.1,0,0,1,251.1,121.6ZM159.5,20a10.1,10.1,0,0,1,7.1,2.9l35.2,35.2-21,21L138.6,36.8l13.9-13.9A10,10,0,0,1,159.5,20Zm-49,44.9L124.4,51l42.3,42.2-21,21L110.5,79A10,10,0,0,1,110.5,64.9Zm98.6,98.6h0a10,10,0,0,1-14.1,0l-35.1-35.1,20.9-21L223,149.6Zm11.8,189.7-62.1-62.1a45.2,45.2,0,0,1,55.8,6.3,45,45,0,0,1,6.3,55.8Zm43.6-47.6a9.8,9.8,0,0,1-13.5,0l-44.4-44.4a9.8,9.8,0,0,1,0-13.5L335.3,119.1a9.4,9.4,0,0,1,13.4,0l44.4,44.4a9.3,9.3,0,0,1,0,13.4Zm126-44.7a9.7,9.7,0,0,1,7-2.9,9.9,9.9,0,0,1,7.1,2.9l35.1,35.2L418.8,317l-42.2-42.2Zm-42,42L362.4,289l42.2,42.2-21,21L348.5,317A10,10,0,0,1,348.5,302.9ZM433,401.5l-35.2-35.2,21-21L461,387.6l-13.9,13.9A10,10,0,0,1,433,401.5Zm56.1-42-13.9,13.9-42.3-42.2,21-21,35.2,35.2A10,10,0,0,1,489.1,359.5Z" transform="translate(0 0)"/><path d="M346.3,167.1l-52.5,52.5a10,10,0,0,0,7,17.1,10.2,10.2,0,0,0,7.1-2.9l52.5-52.6a9.8,9.8,0,0,0,0-14.1A10,10,0,0,0,346.3,167.1Z" transform="translate(0 0)"/><path d="M278.1,239.4a10.1,10.1,0,0,0-10,10,10.3,10.3,0,0,0,2.9,7.1,10.1,10.1,0,0,0,14.2,0,10.3,10.3,0,0,0,2.9-7.1,10.1,10.1,0,0,0-10-10Z" transform="translate(0 0)"/></svg>