<svg id="Layer_1" data-name="Layer 1" xmlns="http://www.w3.org/2000/svg" viewBox="0 0 431.3 512"><defs><style>.cls-1{fill:#bfe8f7;}.cls-2{fill:#91d3e2;}.cls-3{fill:#cb9aed;}.cls-4{fill:#a97ace;}.cls-5{fill:#efefef;}.cls-6{fill:#ffdc8d;}.cls-7{fill:#e8c57e;}.cls-8{fill:#78caef;}</style></defs><path class="cls-1" d="M259.6,7.6h0A163.8,163.8,0,0,0,95.8,171.4V439.1H423.4V171.4A163.8,163.8,0,0,0,259.6,7.6Z" transform="translate(-40.3)"/><path class="cls-2" d="M258.5,7.6C211.7,8.7,174,81.6,174,171.4V439.1H95.8V171.4A163.8,163.8,0,0,1,258.5,7.6Z" transform="translate(-40.3)"/><path class="cls-3" d="M431.4,439.1H95.8a32.7,32.7,0,0,0-32.7,32.7h0a32.7,32.7,0,0,0,32.7,32.6H431.4a32.7,32.7,0,0,0,32.7-32.6h0A32.7,32.7,0,0,0,431.4,439.1Z" transform="translate(-40.3)"/><path class="cls-4" d="M138.1,494.8a32.7,32.7,0,0,0,23.1,9.6H95.8a32.7,32.7,0,1,1,0-65.3h65.4a32.6,32.6,0,0,0-23.1,55.7Z" transform="translate(-40.3)"/><path class="cls-5" d="M312.6,148.6h20.6a18.3,18.3,0,0,1,0,36.6H319.1" transform="translate(-40.3)"/><path class="cls-5" d="M319.1,185.2h14.1a18.3,18.3,0,0,1,18.3,18.3,18.5,18.5,0,0,1-5.4,13,18.2,18.2,0,0,1-12.9,5.3H321.8" transform="translate(-40.3)"/><path class="cls-6" d="M179.8,268.3V177.9a69.7,69.7,0,0,1,69.6-69.7h0a69.7,69.7,0,0,1,69.7,69.7v35.3L352.8,318H319.1v19.1a67.4,67.4,0,0,1-67.4,67.4h-2.3a69.7,69.7,0,0,1-69.6-69.6V317.8" transform="translate(-40.3)"/><path class="cls-7" d="M201.8,334.9v-157a69.7,69.7,0,0,1,58.6-68.8,79,79,0,0,0-11-.9h0a69.7,69.7,0,0,0-69.6,69.7v157a69.7,69.7,0,0,0,69.6,69.6h2.3a63.7,63.7,0,0,0,9.8-.7A69.5,69.5,0,0,1,201.8,334.9Z" transform="translate(-40.3)"/><path class="cls-7" d="M195.4,275.5a24.9,24.9,0,1,0,0,35.1" transform="translate(-40.3)"/><circle class="cls-8" cx="235.8" cy="265.7" r="28.6"/><circle class="cls-8" cx="326.2" cy="265.7" r="28.6"/><path class="cls-5" d="M218.4,148.6H147.5a18.3,18.3,0,0,0-18.3,18.3h0a18.3,18.3,0,0,0,18.3,18.3h70.9" transform="translate(-40.3)"/><path class="cls-5" d="M218.4,185.2H158.3A18.3,18.3,0,0,0,140,203.5h0a18.3,18.3,0,0,0,18.3,18.3h60.1" transform="translate(-40.3)"/><path d="M431.4,431.5H95.8a40.3,40.3,0,1,0,0,80.5H350.4a7.6,7.6,0,1,0,0-15.2H95.8a25.1,25.1,0,1,1,0-50.1H431.4a25.1,25.1,0,1,1,0,50.1H375.7a7.6,7.6,0,1,0,0,15.2h55.7a40.3,40.3,0,1,0,0-80.5Z" transform="translate(-40.3)"/><path d="M273.7,354.7a38.4,38.4,0,0,0,18.5-4.8,7.6,7.6,0,1,0-7.4-13.3,23.1,23.1,0,0,1-31.2-8.9,7.7,7.7,0,0,0-10.4-3,7.6,7.6,0,0,0-2.9,10.3A38.2,38.2,0,0,0,273.7,354.7Z" transform="translate(-40.3)"/><path d="M249.4,412.1h2.3a75.1,75.1,0,0,0,75-75V325.6h26.1a7.7,7.7,0,0,0,6.2-3.1,8,8,0,0,0,1.1-6.9l-5-15.6a33.3,33.3,0,0,0,11.4,1.9,36.2,36.2,0,1,0-29.3-57.3l-4.9-15.2h.9a25.9,25.9,0,0,0,18.3-44.2A25.9,25.9,0,0,0,333.2,141H317.3a75.6,75.6,0,0,0-13.2-17.7A77.2,77.2,0,0,0,181.6,141H147.5a25.9,25.9,0,0,0-11.4,49.1,25.4,25.4,0,0,0-3.7,13.4,25.9,25.9,0,0,0,25.9,25.9h60.1a7.6,7.6,0,0,0,0-15.2H158.3a10.7,10.7,0,0,1,0-21.4h60.1a7.6,7.6,0,1,0,0-15.2H147.5a10.7,10.7,0,0,1,0-21.4h70.9a7.6,7.6,0,0,0,0-15.2H199.6a62,62,0,0,1,111.9,36.9v35.3a9.9,9.9,0,0,0,.3,2.4l13.8,42.5H311.5a36.2,36.2,0,0,0-70.7,0H219a7.6,7.6,0,1,0,0,15.2h21.8a36.1,36.1,0,0,0,70.7,0h19l11.9,37.1H319.1a7.6,7.6,0,0,0-7.6,7.6v19.1a59.9,59.9,0,0,1-59.8,59.8h-2.3a62.1,62.1,0,0,1-62-62V324a31.1,31.1,0,0,0,13.3-8A7.6,7.6,0,0,0,190,305.2a17.2,17.2,0,0,1-24.4-24.3,17.3,17.3,0,0,1,24.4,0,7.5,7.5,0,0,0,10.7,0,7.6,7.6,0,0,0,0-10.8,32.1,32.1,0,0,0-13.3-8v-18a7.6,7.6,0,1,0-15.2,0v17a32.6,32.6,0,0,0-17.3,9A32.4,32.4,0,0,0,172.2,325v9.9A77.2,77.2,0,0,0,249.4,412.1Zm26.7-125.4a21,21,0,1,1,21-21A21,21,0,0,1,276.1,286.7Zm90.4-41.9a21,21,0,1,1-21,20.9A21,21,0,0,1,366.5,244.8Zm-25.8-33.7a10.6,10.6,0,0,1-7.5,3.1h-5.8l-.7-2.2V192.8h6.5a10.7,10.7,0,0,1,10.7,10.7A10.3,10.3,0,0,1,340.7,211.1Zm-7.5-54.9a10.7,10.7,0,0,1,7.5,18.3,10.6,10.6,0,0,1-7.5,3.1h-6.5a79.6,79.6,0,0,0-3.1-21.4Z" transform="translate(-40.3)"/><path d="M88.2,212.7a7.6,7.6,0,0,0,15.2,0V171.4c0-86.1,70.1-156.2,156.2-156.2S415.8,85.3,415.8,171.4V413.8a7.6,7.6,0,0,0,15.2,0V171.4C431,76.9,354.1,0,259.6,0S88.2,76.9,88.2,171.4Z" transform="translate(-40.3)"/><path d="M95.8,230.4a7.6,7.6,0,0,0-7.6,7.6V413.8a7.6,7.6,0,0,0,15.2,0V238A7.6,7.6,0,0,0,95.8,230.4Z" transform="translate(-40.3)"/><path d="M383.5,421a7.6,7.6,0,0,0,7.6-7.6V392.1h8.6a7.6,7.6,0,1,0,0-15.2h-8.6V355.6a7.6,7.6,0,0,0-15.2,0v21.3h-8.6a7.6,7.6,0,1,0,0,15.2h8.6v21.3A7.6,7.6,0,0,0,383.5,421Z" transform="translate(-40.3)"/><path d="M67.4,99.1a7.6,7.6,0,0,0,15.2,0V69.2H102A7.6,7.6,0,0,0,102,54H82.6V24.1a7.6,7.6,0,1,0-15.2,0V54H47.9a7.6,7.6,0,0,0,0,15.2H67.4Z" transform="translate(-40.3)"/></svg>