<svg id="Layer_1" data-name="Layer 1" xmlns="http://www.w3.org/2000/svg" viewBox="0 0 344.8 512"><defs><style>.cls-1{fill:#bfe8f7;}.cls-2{fill:#91d3e2;}.cls-3{fill:#cb9aed;}.cls-4{fill:#a97ace;}</style></defs><path class="cls-1" d="M325.9,190.3V77.7H186.1V190.3a164.8,164.8,0,1,0,139.8,0Z" transform="translate(-83.6)"/><path class="cls-2" d="M252.8,504.4c-90.4-.7-163.6-74.2-163.6-164.8a165,165,0,0,1,94.9-149.3V77.7H327.9v47.1H255.7a41.6,41.6,0,0,0-41.6,41.6v23.9c-32.1,26.3-54.3,83.3-54.3,149.3C159.8,429.9,201.4,503.2,252.8,504.4Z" transform="translate(-83.6)"/><path class="cls-2" d="M362.9,42.6a35.1,35.1,0,0,1-35,35.1H184.1a35,35,0,0,1-24.7-10.3,34.7,34.7,0,0,1-10.3-24.8,35,35,0,0,1,35-35H327.9a35.2,35.2,0,0,1,35,35Z" transform="translate(-83.6)"/><path class="cls-1" d="M362.9,42.6a35.1,35.1,0,0,1-35,35.1H254.8a35.1,35.1,0,1,1,0-70.1h73.1a35.2,35.2,0,0,1,35,35Z" transform="translate(-83.6)"/><path class="cls-3" d="M388.7,339.6a132.7,132.7,0,0,1-265.4,0v-1.4c.7-26.7,18.9-47.6,42.1-54.7a60.2,60.2,0,0,1,36.8.6,130,130,0,0,1,14.1,5.7c34.5,16.6,65.3,47.6,107.9,55.7,31.9,6,58.4-24.6,48.4-55.4a83.1,83.1,0,0,1,16.1,48.7Z" transform="translate(-83.6)"/><path class="cls-4" d="M324.3,345.5c-42.7-8.1-73.5-39.1-108-55.7,27.1-27.1,60.2-34.4,88.5-34.2a84.8,84.8,0,0,1,67.8,34.5C382.6,320.9,356.1,351.5,324.3,345.5Z" transform="translate(-83.6)"/><path class="cls-4" d="M185,451.6a132.5,132.5,0,0,1-61.7-112v-1.4c.7-26.7,18.9-47.6,42.1-54.7a279.3,279.3,0,0,0-5.6,56.1C159.8,382.8,169.4,422.2,185,451.6Z" transform="translate(-83.6)"/><path d="M102,371.3a160,160,0,0,1-3.2-31.7,157.3,157.3,0,0,1,90.5-142.4,7.7,7.7,0,0,0,4.4-6.9V103a7.6,7.6,0,1,0-15.2,0v82.5A172.7,172.7,0,0,0,87.1,374.3a7.6,7.6,0,0,0,7.4,6.1,4.7,4.7,0,0,0,1.6-.2A7.5,7.5,0,0,0,102,371.3Z" transform="translate(-83.6)"/><path d="M318.3,103v34.6a7.6,7.6,0,1,0,15.2,0V103a7.6,7.6,0,0,0-15.2,0Z" transform="translate(-83.6)"/><path d="M400.8,245.9a173.3,173.3,0,0,0-67.3-60.4V163a7.6,7.6,0,0,0-15.2,0v27.3a7.7,7.7,0,0,0,4.4,6.9,157.3,157.3,0,0,1,90.5,142.4c0,86.7-70.5,157.2-157.2,157.2a157.1,157.1,0,0,1-144.9-96,7.6,7.6,0,0,0-9.9-4.1,7.7,7.7,0,0,0-4.1,10A172.2,172.2,0,0,0,256,512c95.1,0,172.4-77.3,172.4-172.4A171.7,171.7,0,0,0,400.8,245.9Z" transform="translate(-83.6)"/><path d="M184.1,85.3H327.9a42.7,42.7,0,0,0,0-85.3H184.1a42.7,42.7,0,0,0,0,85.3Zm0-70.1H327.9a27.5,27.5,0,0,1,0,54.9H184.1a27.5,27.5,0,0,1,0-54.9Z" transform="translate(-83.6)"/><path d="M204.6,276.9a66.9,66.9,0,0,0-60.5,8.7A65.6,65.6,0,0,0,115.7,338v1.6c0,77.3,62.9,140.3,140.3,140.3s140.3-63,140.3-140.3v-.8a90,90,0,0,0-27-64.1A91.6,91.6,0,0,0,304.9,248c-27.4-.2-51.7,6.3-72.4,19.2a7.6,7.6,0,0,0,8,12.9c18-11.2,39.2-16.9,63.2-16.9h1.1a77,77,0,0,1,61,30.7,34.8,34.8,0,0,1-7.5,32.8A34.4,34.4,0,0,1,325.7,338c-26-4.9-48-19.2-69.2-33.1C240.1,294.2,223.1,283.1,204.6,276.9Zm165.1,59.9a50.2,50.2,0,0,0,9.3-15.2,75,75,0,0,1,2.1,17.2v.8a125.1,125.1,0,0,1-250.2,0v-1.2A50.5,50.5,0,0,1,152.8,298a52.1,52.1,0,0,1,30-9.5,52.7,52.7,0,0,1,17,2.8c16.6,5.5,32,15.7,48.4,26.4,22.5,14.6,45.7,29.8,74.6,35.3A49.7,49.7,0,0,0,369.7,336.8Z" transform="translate(-83.6)"/><path d="M213.7,408.7a7.5,7.5,0,0,0-7.4-4.7,7.6,7.6,0,0,0-6.9,5.4c-2,6.6,5.5,12.2,11.4,8.6A7.6,7.6,0,0,0,213.7,408.7Z" transform="translate(-83.6)"/><path d="M346,382.4a7.7,7.7,0,0,0,14.4-.9,7.9,7.9,0,0,0-2.9-8.2,7.7,7.7,0,0,0-9,.1A7.8,7.8,0,0,0,346,382.4Z" transform="translate(-83.6)"/><path d="M241.1,188.9c3.7,5.8,13,3.5,13.8-3.3s-7.3-11.1-12.5-6.7A7.7,7.7,0,0,0,241.1,188.9Z" transform="translate(-83.6)"/><path d="M275.3,126.8c3.8,5.8,13,3.6,13.9-3.3a7.8,7.8,0,0,0-4-7.6,7.9,7.9,0,0,0-9,1.3A7.7,7.7,0,0,0,275.3,126.8Z" transform="translate(-83.6)"/><path d="M271,291.6a7.6,7.6,0,0,0,13.9-3.2,7.6,7.6,0,0,0-12.8-6.4A7.5,7.5,0,0,0,271,291.6Z" transform="translate(-83.6)"/><path d="M228,371a7.7,7.7,0,0,0-9.2.6,7.8,7.8,0,0,0-2,8.6,7.5,7.5,0,0,0,7.4,4.7A7.6,7.6,0,0,0,228,371Z" transform="translate(-83.6)"/><path d="M192.2,370.1c-2.6-6.1-11.7-6.1-14.1.2a7.6,7.6,0,0,0,2.4,8.7,7.6,7.6,0,0,0,11.7-8.9Z" transform="translate(-83.6)"/></svg>