<svg id="Layer_1" data-name="Layer 1" xmlns="http://www.w3.org/2000/svg" viewBox="0 0 512 357.5"><defs><style>.cls-1{fill:#a97ace;}.cls-2{fill:#28d05b;}.cls-3{fill:#00b04b;}.cls-4{fill:#cb9aed;}.cls-5{fill:#ffcf5d;}</style></defs><path class="cls-1" d="M469.5,84.5l-442,303h457V99.5A15,15,0,0,0,469.5,84.5Z" transform="translate(0 -77)"/><path class="cls-2" d="M47.5,114.5h407v273H47.5Z" transform="translate(0 -77)"/><path class="cls-3" d="M424.5,344H47.5v30.5h407v-260h-30Z" transform="translate(0 -77)"/><path class="cls-4" d="M469.5,84.5H42.5a15,15,0,0,0-15,15v288h30v-273h397l28.7-21.1A15,15,0,0,0,469.5,84.5Z" transform="translate(0 -77)"/><path class="cls-4" d="M22.5,374.5h467a15,15,0,0,1,15,15V412a15,15,0,0,1-15,15H22.5a15,15,0,0,1-15-15V389.5A15,15,0,0,1,22.5,374.5Z" transform="translate(0 -77)"/><path class="cls-1" d="M7.5,412V397h467V374.5h15a15,15,0,0,1,15,15V412a15,15,0,0,1-15,15H22.5A15,15,0,0,1,7.5,412Z" transform="translate(0 -77)"/><path class="cls-5" d="M446,344.5H388a8.6,8.6,0,0,0-8.5,8.7v12.6a8.6,8.6,0,0,0,8.5,8.7h66.5V353.2A8.6,8.6,0,0,0,446,344.5Z" transform="translate(0 -77)"/><path d="M492,367.1V92a15,15,0,0,0-15-15H35A15,15,0,0,0,20,92V367.1A22.6,22.6,0,0,0,0,389.5V412a22.5,22.5,0,0,0,22.5,22.5h467A22.5,22.5,0,0,0,512,412V389.5A22.6,22.6,0,0,0,492,367.1ZM477,92V367H462V114.5a7.6,7.6,0,0,0-7.5-7.5H57.5a7.6,7.6,0,0,0-7.5,7.5v229a7.5,7.5,0,0,0,15,0V122H447V337.1H388a16.2,16.2,0,0,0-16,16.2v12.6a4.9,4.9,0,0,0,.1,1.2H340.6l14.7-14.7a7.5,7.5,0,0,0-10.6-10.6l-20,20a7.4,7.4,0,0,0-2.2,5.3H35V92ZM386.9,367a4.9,4.9,0,0,0,.1-1.2V353.2a1.1,1.1,0,0,1,1-1.2h59V367ZM497,412a7.6,7.6,0,0,1-7.5,7.5H22.5A7.6,7.6,0,0,1,15,412V389.5a7.6,7.6,0,0,1,7.5-7.5h467a7.6,7.6,0,0,1,7.5,7.5Z" transform="translate(0 -77)"/><path d="M281.5,248.1l31.1,17.8v31.5l-31.1,17.9a7.5,7.5,0,0,0-2.8,10.3,7.6,7.6,0,0,0,10.3,2.7l31.1-17.9,31.1,17.9a7.7,7.7,0,0,0,7.6,0l34.8-20.1a7.4,7.4,0,0,0,3.8-6.5V261.4a7.3,7.3,0,0,0-3.8-6.5l-31.1-17.8V205.6l27.4-15.8,31.2,17.8a7.5,7.5,0,1,0,7.4-13l-31.1-17.8V147.6a7.5,7.5,0,0,0-15,0v29.2L355,192.6l-31.1-18a7.7,7.7,0,0,0-7.5,0l-34.9,20.2a7.3,7.3,0,0,0-3.8,6.5v40.3A7.6,7.6,0,0,0,281.5,248.1Zm100.9,49.3L355,313.2l-27.4-15.8V265.9l27.3-15.8h.1l27.4,15.6Zm-89.7-91.8,27.4-15.8,27.4,15.8v31.5l-27.3,15.7h-.1l-27.4-15.7Z" transform="translate(0 -77)"/><path d="M87,270.5A25.6,25.6,0,0,0,112.6,296a25.3,25.3,0,0,0,17.3-6.8l20.7,11.9a29.6,29.6,0,0,0-.5,5.2,25.6,25.6,0,0,0,51.1,0,25.9,25.9,0,0,0-.8-6.3l18.8-10.8a25.3,25.3,0,0,0,17.3,6.8,25.5,25.5,0,0,0,7.5-49.9V223.6a25.6,25.6,0,1,0-24.7-43.3l-18.9-10.9a25.9,25.9,0,0,0,.8-6.3,25.6,25.6,0,0,0-51.1,0,29.6,29.6,0,0,0,.5,5.2l-20.9,12a25.4,25.4,0,0,0-17.1-6.7,25.6,25.6,0,0,0-7.5,50v22.5A25.5,25.5,0,0,0,87,270.5ZM112.6,281a10.5,10.5,0,1,1,10.5-10.5A10.6,10.6,0,0,1,112.6,281Zm25.5-81.8a29,29,0,0,0-.7-6l20.4-11.8a25.7,25.7,0,0,0,34.8.8l19.1,11a23.5,23.5,0,0,0-.7,6,25.6,25.6,0,0,0,18,24.4v22.5a25.5,25.5,0,0,0-18,24.4,26.9,26.9,0,0,0,.6,5.7l-19,11a25.4,25.4,0,0,0-34.8.8l-20.4-11.8a21.7,21.7,0,0,0,.7-5.7,25.5,25.5,0,0,0-18-24.4V223.6A25.6,25.6,0,0,0,138.1,199.2Zm37.5,117.6a10.6,10.6,0,0,1,0-21.1,10.6,10.6,0,1,1,0,21.1ZM236.5,281a10.5,10.5,0,1,1,10.6-10.5A10.5,10.5,0,0,1,236.5,281Zm0-92.4a10.6,10.6,0,1,1,0,21.1,10.6,10.6,0,0,1,0-21.1Zm-60.9-36a10.5,10.5,0,1,1-10.5,10.5A10.6,10.6,0,0,1,175.6,152.6Zm-63,36A10.6,10.6,0,1,1,102,199.2,10.6,10.6,0,0,1,112.6,188.6Z" transform="translate(0 -77)"/></svg>