<svg id="Capa_1" data-name="Capa 1" xmlns="http://www.w3.org/2000/svg" viewBox="0 0 512 512"><defs><style>.cls-1{fill:#f9c55f;}.cls-2{fill:#f44a82;}.cls-3{fill:#91d3e2;}.cls-4{fill:#eceeff;}</style></defs><path class="cls-1" d="M136,245.6a139.5,139.5,0,0,0,240,0Z" transform="translate(0)"/><ellipse class="cls-2" cx="256" cy="174" rx="246" ry="82"/><path class="cls-3" d="M256,10h0A100,100,0,0,0,156,110v35.2a18.4,18.4,0,0,0,13.7,17.9h0a332.4,332.4,0,0,0,172.6,0h0A18.4,18.4,0,0,0,356,145.2V110A100,100,0,0,0,256,10Z" transform="translate(0)"/><rect class="cls-4" x="19.7" y="333.7" width="46.6" height="46.64" transform="translate(-239.9 135) rotate(-45)"/><path d="M466.2,120.1c-25.6-12.9-60.7-23.2-102-29.8a110,110,0,0,0-216.4,0c-41.3,6.6-76.4,16.9-102,29.8C7.9,139.3,0,160,0,174c0,27,27.3,50.3,78.9,67.5a418.3,418.3,0,0,0,50.9,13.1,149.4,149.4,0,0,0,252.4,0,418.3,418.3,0,0,0,50.9-13.1C484.7,224.3,512,201,512,174,512,160,504,139.3,466.2,120.1ZM166,110a90,90,0,0,1,180,0v35.2a8.6,8.6,0,0,1-6.3,8.3,323.2,323.2,0,0,1-167.4,0,8.6,8.6,0,0,1-6.3-8.3V110Zm90,194a130.4,130.4,0,0,1-97.7-44.6A705.5,705.5,0,0,0,256,266a705.5,705.5,0,0,0,97.7-6.6A130.4,130.4,0,0,1,256,304Zm170.8-81.5a412.9,412.9,0,0,1-51.9,13.2l-1.4.2C338,242.5,297.8,246,256,246s-82-3.5-117.5-10.1l-1.4-.2a412.9,412.9,0,0,1-51.9-13.2C44.4,208.9,20,190.8,20,174c0-20.5,39.5-48.5,126-63.2v34.4a28.7,28.7,0,0,0,21.1,27.6A343.4,343.4,0,0,0,256,184.5a343.4,343.4,0,0,0,88.9-11.7A28.7,28.7,0,0,0,366,145.2V110.8c86.5,14.7,126,42.7,126,63.2C492,190.8,467.6,208.9,426.8,222.5Z" transform="translate(0)"/><path d="M450.3,315.6a30,30,0,1,0,30,30A30,30,0,0,0,450.3,315.6Zm0,40a10,10,0,0,1,0-20,10,10,0,1,1,0,20Z" transform="translate(0)"/><path d="M256,207a9.9,9.9,0,1,0,7.1,2.9A10.5,10.5,0,0,0,256,207Z" transform="translate(0)"/><path d="M74.2,152.9a10,10,0,0,0-7.1,3,9.7,9.7,0,0,0-2.9,7,9.9,9.9,0,0,0,10,10,9.7,9.7,0,0,0,7-2.9,10,10,0,0,0,3-7.1,10.3,10.3,0,0,0-10-10Z" transform="translate(0)"/><path d="M437.8,152.9a10.3,10.3,0,0,0-10,10,10,10,0,0,0,3,7.1,9.7,9.7,0,0,0,7,2.9,9.9,9.9,0,0,0,10-10,9.7,9.7,0,0,0-2.9-7A10,10,0,0,0,437.8,152.9Z" transform="translate(0)"/><path d="M363.7,196.4a9.9,9.9,0,0,0-10,10,9.7,9.7,0,0,0,2.9,7,10,10,0,0,0,7.1,3,10.3,10.3,0,0,0,10-10,10,10,0,0,0-3-7.1A9.7,9.7,0,0,0,363.7,196.4Z" transform="translate(0)"/><path d="M148.3,196.4a9.7,9.7,0,0,0-7,2.9,10,10,0,0,0-3,7.1,10.3,10.3,0,0,0,10,10,10,10,0,0,0,7.1-3,9.7,9.7,0,0,0,2.9-7,9.9,9.9,0,0,0-10-10Z" transform="translate(0)"/><path d="M196.3,120a10,10,0,0,0,10-10.1v-.2a9.9,9.9,0,0,0-10-9.9,10,10,0,0,0-10,10v.2A10,10,0,0,0,196.3,120Z" transform="translate(0)"/><path d="M201.7,83.3a9.8,9.8,0,0,0,5.8,1.9,10.3,10.3,0,0,0,8.2-4.2A49.9,49.9,0,0,1,256,60.3a10,10,0,0,0,0-20,70.2,70.2,0,0,0-56.6,29A10.1,10.1,0,0,0,201.7,83.3Z" transform="translate(0)"/><path d="M159.5,299.4a10.1,10.1,0,0,0-12.9,5.9l-72,193.2a10.1,10.1,0,0,0,5.9,12.9,10.7,10.7,0,0,0,3.5.6,10,10,0,0,0,9.4-6.5l72-193.2A10,10,0,0,0,159.5,299.4Z" transform="translate(0)"/><path d="M365.4,305.3a10,10,0,1,0-18.8,7l72,193.2A10,10,0,0,0,428,512a10.7,10.7,0,0,0,3.5-.6,10.1,10.1,0,0,0,5.9-12.9Z" transform="translate(0)"/><path d="M256,387.9a10,10,0,0,0-10,10V475a10,10,0,0,0,20,0V397.9A10,10,0,0,0,256,387.9Z" transform="translate(0)"/><path d="M256,347a9.9,9.9,0,1,0,7.1,2.9A10.5,10.5,0,0,0,256,347Z" transform="translate(0)"/><path d="M83,349.9l-32.9-33A10.5,10.5,0,0,0,43,314a10.3,10.3,0,0,0-7.1,2.9l-33,33a10.1,10.1,0,0,0,0,14.2l33,33A10.3,10.3,0,0,0,43,400a10.5,10.5,0,0,0,7.1-2.9l32.9-33A10.1,10.1,0,0,0,83,349.9ZM43,375.8,24.1,357,43,338.2,61.8,357Z" transform="translate(0)"/><path d="M462.6,40h9.7V50a10,10,0,0,0,20,0V40H502a10,10,0,0,0,0-20h-9.7V10a10,10,0,0,0-20,0V20h-9.7a10,10,0,0,0,0,20Z" transform="translate(0)"/><path d="M64,51A9.9,9.9,0,0,0,74,41,9.9,9.9,0,0,0,64,31,9.9,9.9,0,0,0,54,41,9.9,9.9,0,0,0,64,51Z" transform="translate(0)"/><path d="M502,451.9a10.1,10.1,0,0,0-10,10,10.3,10.3,0,0,0,2.9,7.1,10.1,10.1,0,0,0,14.2,0,10.3,10.3,0,0,0,2.9-7.1,10.1,10.1,0,0,0-10-10Z" transform="translate(0)"/></svg>