<svg id="Layer_1" data-name="Layer 1" xmlns="http://www.w3.org/2000/svg" viewBox="0 0 478.2 512"><defs><style>.cls-1{fill:#756e75;}.cls-2{fill:#efefef;}.cls-3{fill:#ffdc8d;}.cls-4{fill:#e8c57e;}.cls-5{fill:#ccc;}.cls-6{fill:#78caef;}.cls-7{fill:#f9c55f;}.cls-8{fill:#91d3e2;}.cls-9{fill:#bfe8f7;}</style></defs><path class="cls-1" d="M411.4,270.3,397,333.6a13.1,13.1,0,0,1-25.6-5.8l14.4-63.4" transform="translate(-16.9)"/><path class="cls-2" d="M218,45.7h19.4A17.3,17.3,0,0,1,254.7,63a17.1,17.1,0,0,1-17.3,17.3H224.1" transform="translate(-16.9)"/><path class="cls-2" d="M224.1,80.3h13.3a17.4,17.4,0,0,1,12.3,29.6,17.6,17.6,0,0,1-12.3,5.1H226.7" transform="translate(-16.9)"/><path class="cls-3" d="M92.4,158.9V73.4A65.9,65.9,0,0,1,158.3,7.6h0a65.9,65.9,0,0,1,65.8,65.8v33.4L256,205.9H224.1v18a63.8,63.8,0,0,1-63.7,63.8h-2.1a65.9,65.9,0,0,1-65.9-65.9V205.7" transform="translate(-16.9)"/><path class="cls-4" d="M113.2,221.8V73.4a65.8,65.8,0,0,1,55.4-65,69.3,69.3,0,0,0-10.3-.8h0A65.9,65.9,0,0,0,92.4,73.4V221.8a65.9,65.9,0,0,0,65.9,65.9h2.1a69.9,69.9,0,0,0,9.2-.7A65.9,65.9,0,0,1,113.2,221.8Z" transform="translate(-16.9)"/><path class="cls-4" d="M107.1,165.7a23.5,23.5,0,1,0,0,33.2" transform="translate(-16.9)"/><path class="cls-2" d="M255.6,385c0,13.7-2.9,41.3-8.1,74.7-2,16.4-3.3,31.4-4,44.7H74.3c-1.2-14.9-2.9-30.5-5.3-44.7-5.2-33.4-8-61-8-74.7a97.3,97.3,0,0,1,194.6,0Z" transform="translate(-16.9)"/><path class="cls-5" d="M100.6,385c0,13.7,1.7,41.3,4.8,74.7,1.4,14.2,2.4,29.8,3.1,44.7H74.3c-1.2-14.9-2.9-30.5-5.3-44.7-5.2-33.4-8-61-8-74.7a97.2,97.2,0,0,1,97.3-97.3C126.4,287.7,100.6,331.2,100.6,385Z" transform="translate(-16.9)"/><circle class="cls-6" cx="166.6" cy="156.5" r="27"/><circle class="cls-6" cx="252" cy="156.5" r="27"/><path class="cls-2" d="M128.9,45.7h-67A17.4,17.4,0,0,0,44.6,63h0A17.3,17.3,0,0,0,61.9,80.3h67" transform="translate(-16.9)"/><path class="cls-2" d="M128.9,80.3H72.1A17.3,17.3,0,0,0,54.8,97.7h0A17.3,17.3,0,0,0,72.1,115h56.8" transform="translate(-16.9)"/><circle class="cls-7" cx="397.6" cy="198.1" r="73"/><path class="cls-8" d="M454.9,207.3a41.5,41.5,0,0,1-49.7,31.2h-.5a41.5,41.5,0,0,1,0-80.6,40.6,40.6,0,0,1,19-.1A41.4,41.4,0,0,1,454.9,207.3Z" transform="translate(-16.9)"/><path class="cls-9" d="M435.3,207.3a41.3,41.3,0,0,1-30.6,31.1,41.5,41.5,0,0,1,0-80.6A41.4,41.4,0,0,1,435.3,207.3Z" transform="translate(-16.9)"/><path d="M233.9,389.5a7.6,7.6,0,0,0-7.6-7.6H195.1a7.6,7.6,0,1,0,0,15.2h31.2A7.6,7.6,0,0,0,233.9,389.5Z" transform="translate(-16.9)"/><path d="M432.4,119.5a80.7,80.7,0,0,0-55.5,150l-7.6,33.2c-26.7,8.8-35.9,28.9-42.9,44.1-.8,1.9-1.7,3.8-2.6,5.6-9.1,19-18.5,29.2-27,29.6-15.4.8-34.8-28.1-50-53.3l-.6-.9a105.5,105.5,0,0,0-51.7-41.3,71.3,71.3,0,0,0,37.2-62.2h0V213.5H256a7.8,7.8,0,0,0,6.2-3.2,7.5,7.5,0,0,0,1-6.8l-4.5-13.9a34.7,34.7,0,1,0-17.4-54l-4.1-13h.2a25,25,0,0,0,17.9-42.3,24.3,24.3,0,0,0,7-17.3,24.9,24.9,0,0,0-24.9-24.9H222.7a76.9,76.9,0,0,0-12.5-16.6A72.8,72.8,0,0,0,158.3,0,73.6,73.6,0,0,0,93.9,38.1h-32A24.9,24.9,0,0,0,50.5,85.2a25,25,0,0,0,21.6,37.4h56.8a7.6,7.6,0,0,0,0-15.2H72.1a9.8,9.8,0,0,1,0-19.5h56.8a7.6,7.6,0,0,0,0-15.2h-67a9.7,9.7,0,1,1,0-19.4h67a7.6,7.6,0,0,0,0-15.2H112a58.6,58.6,0,0,1,46.3-22.9,58.4,58.4,0,0,1,58.2,58.2v33.4a9.9,9.9,0,0,0,.3,2.4l12.8,39.7H217.3a34.6,34.6,0,0,0-67.6,0H129.5a7.6,7.6,0,0,0,0,15.2h20.2a34.7,34.7,0,0,0,67.6,0h17.2l11.1,34.2H224.1a7.6,7.6,0,0,0-7.6,7.6v14.5c-2.8,1.5-9.7,3.2-22.5-3.2a7.7,7.7,0,0,0-10.3,3.3,7.5,7.5,0,0,0,3.4,10.2c9.2,4.7,16.8,6.3,22.9,6.3a26,26,0,0,0,5-.4A56,56,0,0,1,160.4,280h-2.1A58.3,58.3,0,0,1,100,221.8v-9.9a31,31,0,0,0,12.5-7.6,7.6,7.6,0,1,0-10.7-10.8,15.9,15.9,0,1,1,0-22.4,7.5,7.5,0,0,0,10.7,0,7.6,7.6,0,0,0,0-10.8,31.3,31.3,0,0,0-12.5-7.6V137.3a7.6,7.6,0,1,0-15.2,0v14.5a30.8,30.8,0,0,0-16.2,8.5,31.2,31.2,0,0,0,16.2,52.6v8.9a73.5,73.5,0,0,0,38.1,64.4,107.7,107.7,0,0,0-27,14.4l-.3.2a107.9,107.9,0,0,0-37.6,21c-18.8,16-41.1,46.4-41.1,100.5,0,22.9,2.9,51,8.6,83.4A7.7,7.7,0,0,0,33,512h1.4a7.6,7.6,0,0,0,6.1-8.8c-5.6-31.6-8.4-58.8-8.4-80.8,0-37.8,11.4-67.1,34-87.4A104.8,104.8,0,0,0,53.3,385c0,12.2,2.2,34.4,6,60.9l4.1,27.4c1.3,9.6,2.4,20.2,3.3,31.7a7.6,7.6,0,0,0,7.6,7H182.9a7.6,7.6,0,1,0,0-15.2h-17V316.6l16,28.3a7.3,7.3,0,0,0,5.9,3.8h.7a7.4,7.4,0,0,0,5.8-2.8l23.4-28.1A89.5,89.5,0,0,1,247.9,385c0,13.7-3,41.9-7.9,73.5v.2q-2.4,19.4-3.6,38.1H208.3a7.6,7.6,0,0,0,0,15.2h35.2a7.6,7.6,0,0,0,7.6-7.2c.8-14.3,2.1-29.1,3.9-44.1,5.1-32.7,8.2-61,8.2-75.7q0-3.5-.3-6.9c11,12.2,21.8,19.2,33.3,19.2h1.3c14.9-.7,28-13.2,40.1-38.2l2.7-5.9c5.5-12.1,11.2-24.4,24.8-32.1l-1.1,5.1a20.6,20.6,0,0,0,15.6,24.8,18,18,0,0,0,4.6.5,20.8,20.8,0,0,0,20.2-16.1l12.9-56.6a80.6,80.6,0,0,0,15.1-159.2ZM183.5,175.9a19.4,19.4,0,1,1,19.4-19.4A19.4,19.4,0,0,1,183.5,175.9Zm85.4-38.8a19.4,19.4,0,1,1-19.4,19.4A19.4,19.4,0,0,1,268.9,137.1Zm-24.6-32.6a9.6,9.6,0,0,1-6.9,2.9h-5.2l-.5-1.8V87.9h5.7a9.8,9.8,0,0,1,6.9,16.6Zm-6.9-51.2a9.7,9.7,0,0,1,9.7,9.7,9.6,9.6,0,0,1-9.7,9.7h-5.7a74.5,74.5,0,0,0-2.8-19.4Zm-92.8,243-17.8,31.5-15.8-19A89.1,89.1,0,0,1,144.6,296.3ZM81.3,496.8c-.8-9.2-1.8-17.7-2.9-25.6h0l-4.1-27.4c-3.6-25.7-5.7-47.1-5.7-58.7a89.5,89.5,0,0,1,30.2-67.1L122.2,346a7.2,7.2,0,0,0,6.5,2.7,7.3,7.3,0,0,0,5.9-3.8l16-28.3V496.8Zm108.4-169-17.8-31.5a89.1,89.1,0,0,1,33.6,12.5Zm199.9,4.1a5.7,5.7,0,0,1-6.7,4.2,5.6,5.6,0,0,1-4.1-6.6l3.3-14.4,2.4-.4a7.6,7.6,0,0,0,6.3-8.7,7.4,7.4,0,0,0-5.3-6.1l5.7-24.6,5.3,1.4,5.4,1.1Zm88.6-119.2a65.5,65.5,0,1,1-63.9-80,66.9,66.9,0,0,1,14.7,1.6,65.3,65.3,0,0,1,49.2,78.4Z" transform="translate(-16.9)"/><path d="M455.6,188.8a7.5,7.5,0,0,0-7.3,7.9,33.2,33.2,0,0,1-.9,8.9,33.6,33.6,0,0,1-40.5,25.5,33.8,33.8,0,0,1-25.4-40.5,33.8,33.8,0,0,1,56.3-17,7.6,7.6,0,0,0,10.6-11,49.6,49.6,0,0,0-23-12.3,49,49,0,1,0-21.9,95.6,46.5,46.5,0,0,0,11,1.3A49.4,49.4,0,0,0,462.3,209a47.1,47.1,0,0,0,1.2-13A7.5,7.5,0,0,0,455.6,188.8Z" transform="translate(-16.9)"/></svg>