<svg id="Layer_1" data-name="Layer 1" xmlns="http://www.w3.org/2000/svg" viewBox="0 0 512 464.3"><defs><style>.cls-1{fill:#ff7e40;}.cls-2{fill:#ffb545;}.cls-3{fill:#87f8f4;}.cls-4{fill:#00e7ec;}.cls-5{fill:#35404a;}.cls-6{fill:#60f375;}.cls-7{fill:#00bd4f;}.cls-8{fill:#596775;}</style></defs><path class="cls-1" d="M331.6,347.5A100,100,0,0,0,255.3,313h-.8l-50,60.5,50,59.5h1.7a232.2,232.2,0,0,0,59.9-8.4l1.2-.3c2.9-.8,5.9-1.7,8.8-2.7,5.1-1.7,10-3.5,14.9-5.5l8.9-3.8,6.1-2.9A99.8,99.8,0,0,0,331.6,347.5Z" transform="translate(0 -24)"/><path class="cls-2" d="M197.1,332.2a101.3,101.3,0,0,0-17.6,16.4A99.9,99.9,0,0,0,156,411a237.5,237.5,0,0,0,30.1,11.7l8.8,2.5,1.2.3a229.7,229.7,0,0,0,58.4,7.5V313A100.1,100.1,0,0,0,197.1,332.2Z" transform="translate(0 -24)"/><path class="cls-2" d="M396,191.5c0,27.5-7.6,91.7-23.9,107.4-22.9,22.1-76.8,32.6-115.9,32.6S162.8,321,139.9,298.9C123.6,283.2,116,219,116,191.5c0-77.3,62.7-160,140-160S396,114.2,396,191.5Z" transform="translate(0 -24)"/><path class="cls-1" d="M332,101.7c21.3,25.6,34,59.1,34,89.8,0,10.9-1.5,30.4-4.8,49.6-4.6,26.3-9.5,35.2-10.5,36.8-14.3,13-56.3,23.6-94.5,23.6-25.7,0-53.9-5-73.7-12.3a40.4,40.4,0,0,0-42.6,9.7c22.9,22.1,77.3,32.6,116.3,32.6s93-10.5,115.9-32.6C388.4,283.2,396,219,396,191.5c0-77.3-62.7-160-140-160V32a35,35,0,0,0,24.8,33.4C299.3,71.3,316.9,83.7,332,101.7Z" transform="translate(0 -24)"/><path class="cls-3" d="M254.7,212.5a86.6,86.6,0,0,1,77.5,48c4.9-15.2,9.8-48.3,9.8-69,0-25.6-10.8-53.7-28.8-75.3S274.7,84,254.5,84s-41.7,11.7-58.7,32.2S167,165.9,167,191.5c0,21,5,54.7,10,69.6A86.3,86.3,0,0,1,254.7,212.5Z" transform="translate(0 -24)"/><path class="cls-4" d="M332.2,260.5c4.9-15.2,9.8-48.3,9.8-69,0-25.6-10.8-53.7-28.8-75.3S274.7,84,254.5,84a44.2,44.2,0,0,0,19.7,36.9,76.2,76.2,0,0,1,16,14.5l.4.5c16.3,19.8.5,49.5-25.1,47.1-3.5-.3-7.2-.5-10.8-.5a115.9,115.9,0,0,0-62.5,18.2A114.4,114.4,0,0,0,169,220.2c1.9,15.8,4.9,31.8,8,40.9a86.5,86.5,0,0,1,155.2-.6Z" transform="translate(0 -24)"/><path class="cls-5" d="M236,327a30,30,0,1,1-30-30A30,30,0,0,1,236,327Z" transform="translate(0 -24)"/><path class="cls-5" d="M336,327a30,30,0,1,1-30-30A30,30,0,0,1,336,327Z" transform="translate(0 -24)"/><path class="cls-6" d="M96.1,377.7,74.9,398.9a54.4,54.4,0,0,0-7,26.9,54.8,54.8,0,1,0,28.2-48.1Z" transform="translate(0 -24)"/><path class="cls-7" d="M36.2,317.8,15,339.1l59.9,59.8a5.6,5.6,0,0,1,4.5-2H96.7a55,55,0,0,1,49.7,78.6,55,55,0,0,0-20.6-104.7,56,56,0,0,0-29.7,6.9Z" transform="translate(0 -24)"/><path class="cls-5" d="M56,354.6l-.8,20.2,14.1-6.9a10.7,10.7,0,1,0,15.1-15.1L71,339.4a10.8,10.8,0,0,0-16.3,1.5A10.7,10.7,0,0,0,56,354.6Z" transform="translate(0 -24)"/><path class="cls-8" d="M30.8,357.4c-9.6,13.5-8.4,26.4,7.1,41.9,9.5,9.4,23.3,13.3,37-.4,7.5-7.5,5.1-20.4-2.4-27.9L56,354.6C48.6,347.2,36.8,348.9,30.8,357.4Z" transform="translate(0 -24)"/><path class="cls-6" d="M418.8,467.4l18.4-68.5L416,377.7,347.4,396a18,18,0,0,0-8,30.1l49.4,49.4A17.9,17.9,0,0,0,418.8,467.4Z" transform="translate(0 -24)"/><path class="cls-7" d="M475.8,317.8,416,377.7a29.4,29.4,0,0,0-7.8,13.4L386.3,473l2.5,2.5a17.9,17.9,0,0,0,30-8.1l18.4-68.5L497,339.1Z" transform="translate(0 -24)"/><path class="cls-8" d="M456,354.8l.8,20.2-14.1-6.9A10.7,10.7,0,1,1,427.6,353L441,339.6a10.8,10.8,0,0,1,16.3,1.5A10.7,10.7,0,0,1,456,354.8Z" transform="translate(0 -24)"/><path class="cls-5" d="M481.2,357.6c9.6,13.5,8.4,26.4-7.1,41.8-9.5,9.5-23.3,13.4-37-.3-7.5-7.5-5.1-20.4,2.4-27.9L456,354.8C463.4,347.4,475.2,349.1,481.2,357.6Z" transform="translate(0 -24)"/><path d="M325.5,263.9a7.5,7.5,0,0,0,7.3,4.1,7.4,7.4,0,0,0,6.5-5.2c5.3-16.5,10.2-50.5,10.2-71.3,0-54.8-45.3-115-95-115s-95,60.4-95,115c0,21.4,4.9,55.7,10.3,72a7.6,7.6,0,0,0,6.7,5.1h.5a7.5,7.5,0,0,0,6.7-4.2,79,79,0,0,1,141.8-.5ZM180,242c-3.1-16.1-5.5-36.8-5.5-50.5,0-47.5,39.6-100,80-100s80,52.6,80,100c0,13.7-2.3,34-5.4,50A94,94,0,0,0,180,242Z" transform="translate(0 -24)"/><path d="M238.1,238.3a7.5,7.5,0,1,0,0,15h35.8a7.5,7.5,0,0,0,0-15Z" transform="translate(0 -24)"/><path d="M238.1,283.3h35.8a7.5,7.5,0,0,0,0-15H238.1a7.5,7.5,0,1,0,0,15Z" transform="translate(0 -24)"/><path d="M248.5,313.3h15a7.5,7.5,0,0,0,0-15h-15a7.5,7.5,0,1,0,0,15Z" transform="translate(0 -24)"/><path d="M509.8,341.2l-36-36a7.4,7.4,0,0,0-10.6,0,7.5,7.5,0,0,0,0,10.6l2,2h0l-11.9,11.8a18,18,0,0,0-17.6,4.6l-13.4,13.4a18.1,18.1,0,0,0-4.7,17.7l-5.5,5.6-52.3,14A107.7,107.7,0,0,0,339,344.7a36.6,36.6,0,0,0,4.4-20.6c14.6-5.5,26-12.1,33.9-19.8,19.7-19.1,26.2-90.4,26.2-112.8C403.5,110.2,337.9,24,256,24S108.5,110.2,108.5,191.5c0,22.4,6.5,93.7,26.2,112.8,7.9,7.7,19.3,14.3,33.9,19.8a38.1,38.1,0,0,0,4.4,20.7A104.8,104.8,0,0,0,156.2,373a62.6,62.6,0,0,0-30-9.7,63.4,63.4,0,0,0-28.6,5.3l-3.3-3.2a18.2,18.2,0,0,0-4.6-17.9L76.3,334.1a18.2,18.2,0,0,0-17.8-4.5L46.8,317.9h0l2-2a7.5,7.5,0,0,0,0-10.6,7.4,7.4,0,0,0-10.6,0l-36,36a7.5,7.5,0,0,0,0,10.6A7.9,7.9,0,0,0,7.5,354a7.9,7.9,0,0,0,5.3-2.2l2.1-2.2H15l7.2,7.2c-9.2,15.8-5.8,31.5,10.4,47.7,6.2,6.2,14.6,10.8,23.8,10.8a21.8,21.8,0,0,0,5-.5,56.7,56.7,0,0,0-1,10.9,62.5,62.5,0,1,0,108.1-42.7,87.4,87.4,0,0,1,9.9-20.4,112.8,112.8,0,0,1,10.1,45.8A7.6,7.6,0,0,0,196,416h0a7.6,7.6,0,0,0,7.5-7.6,128.4,128.4,0,0,0-8.8-45.6,38.6,38.6,0,0,0,11.3,1.7h0a37.4,37.4,0,0,0,35.7-25.9l5.3.3V433a7.5,7.5,0,0,0,15,0V338.4a14.5,14.5,0,0,0-14-14.5l-4.7-.2a37.1,37.1,0,0,0-10.8-23.2h0a7.5,7.5,0,1,0-10.6,10.6h0a22.5,22.5,0,1,1-20.7-6.1,7.5,7.5,0,0,0-3.2-14.6,37.6,37.6,0,0,0-25.2,19.2c-12-4.6-21.5-10.1-27.6-16-12.6-12.2-21.7-69.4-21.7-102.1C123.5,118.6,182.5,39,256,39s132.5,79.5,132.5,152.5c0,32.7-9.1,89.9-21.7,102.1-6.1,5.9-15.6,11.4-27.6,16.1a39.1,39.1,0,0,0-2.6-4.4,37.7,37.7,0,0,0-18.7-13.9,7.5,7.5,0,0,0-4.8,14.3h0a22.5,22.5,0,1,1-21.2,3.8,7.5,7.5,0,0,0-9.4-11.7A37.5,37.5,0,0,0,306,364.5a38.5,38.5,0,0,0,10.1-1.4,126.6,126.6,0,0,0-7.6,44.5A7.5,7.5,0,0,0,316,415h0a7.5,7.5,0,0,0,7.5-7.5,112.1,112.1,0,0,1,7.8-42.2,7.5,7.5,0,0,0-2.3-8.7h.2a91.2,91.2,0,0,1,16.1,32.4,24.8,24.8,0,0,0-15.4,12,25.8,25.8,0,0,0-2.3,19.8,26.4,26.4,0,0,0,6.5,10.7l49.4,49.4A25.4,25.4,0,0,0,426,469.4l15.5-57.6a29.7,29.7,0,0,0,14.3,3.7h1.9c7.8-.6,15.3-4.3,21.7-10.7,16.3-16.3,19.7-32,10.3-47.8l7.3-7.3h0l2.2,2.2a7.5,7.5,0,0,0,10.6,0A7.5,7.5,0,0,0,509.8,341.2ZM79.1,358.1a3.2,3.2,0,0,1,.3,4.2,3.1,3.1,0,0,1-4.7.3L61.3,349.3a3.1,3.1,0,0,1,.2-4.8,3.2,3.2,0,0,1,4.2.3ZM36.2,328.4h0l10.9,10.8a17.5,17.5,0,0,0-1.2,3.2,23.3,23.3,0,0,0-13.5,3.4l-6.8-6.8h0Zm7,65.6c-14.2-14.2-12.8-23.1-6.3-32.2,3.3-4.7,9.6-6,13.8-1.9l16.5,16.5a16.1,16.1,0,0,1,4.7,10.9,7.9,7.9,0,0,1-2.3,6.3C60.7,402.5,51.8,402.6,43.2,394Zm126.7,38.8a47.6,47.6,0,0,1-26.7,35.9c-31.3,14.9-67.8-8.1-67.8-42.9a48,48,0,0,1,5.7-22.6c5.7-6.5,7.6-16,4.1-25.8l5.6,5.6a7.6,7.6,0,0,0,9,1.3,47.3,47.3,0,0,1,25.6-6C151.8,379.7,174.2,403.7,169.9,432.8Zm263-74.5L446.3,345a3.2,3.2,0,0,1,4.8.4,3.1,3.1,0,0,1-.4,4.1l-13.3,13.3a3.2,3.2,0,0,1-4.8-.3.1.1,0,0,0-.1-.1A3.3,3.3,0,0,1,432.9,358.3ZM411.6,465.5a10.4,10.4,0,0,1-7.4,7.4,10.2,10.2,0,0,1-10.1-2.7l-49.4-49.4a10.4,10.4,0,0,1-1.7-12.6,9.7,9.7,0,0,1,6.4-4.9l68.5-18.4a7.7,7.7,0,0,0,3.4-1.9l5.7-5.7a27.9,27.9,0,0,0-1.9,10.2,23.3,23.3,0,0,0,3.8,13.3Zm57.2-71.3c-8.6,8.6-17.8,8.4-26.4-.4a7.9,7.9,0,0,1-2.3-6.3c0-7.2,3-9.2,21.2-27.4h0c4.2-4.1,10.5-2.8,13.8,1.9C481.6,371.1,483,380,468.8,394.2Zm17.6-55.1-6.9,6.9a23.9,23.9,0,0,0-13.4-3.3,16.1,16.1,0,0,0-1.2-3.3l10.9-10.9h0L486.4,339Z" transform="translate(0 -24)"/><path d="M328.5,184a7.6,7.6,0,0,0-7.5-7.5H291a7.5,7.5,0,0,0,0,15,15,15,0,0,0,30,0A7.6,7.6,0,0,0,328.5,184Z" transform="translate(0 -24)"/><path d="M221,176.5H191a7.5,7.5,0,0,0,0,15,15,15,0,0,0,30,0,7.5,7.5,0,0,0,0-15Z" transform="translate(0 -24)"/></svg>