<svg id="Layer_1" data-name="Layer 1" xmlns="http://www.w3.org/2000/svg" viewBox="0 0 315 512"><defs><style>.cls-1{fill:#fff9eb;}.cls-2{fill:#d3cdbf;}.cls-3{fill:#87f8f4;}.cls-4{fill:#00e7ec;}.cls-5{fill:#ff6344;}.cls-6{fill:#ff983b;}</style></defs><path class="cls-1" d="M358.2,254.3c-.1-.1-.1-.2-.2-.2V198.4a60,60,0,0,0-110.2-31.2,20,20,0,0,0-39.8,2.7,19.3,19.3,0,0,0,3,10.6c2.6,4.1,6.7,10.2,16.4,10.2L267,241.9v56.9h94.5A29.3,29.3,0,0,0,358.2,254.3Z" transform="translate(-98)"/><path class="cls-2" d="M358,254.1V220.9c0-22,1.6-34.5-8.4-51.4a59.9,59.9,0,0,0-42.8-28.9,22.5,22.5,0,0,0,9.9,26.9h.2A22.7,22.7,0,0,1,328,187.3v85l33.5,26.5C374.3,286,372.8,264.6,358,254.1Z" transform="translate(-98)"/><path class="cls-2" d="M228,150a20,20,0,0,0-18.6,12.6h6.5A10.1,10.1,0,0,1,226,172.7c3.2,12.7,22,10.3,22-2.9v-3l-.2.4A20,20,0,0,0,228,150Z" transform="translate(-98)"/><path class="cls-1" d="M208,135a35,35,0,1,1-35-35A35,35,0,0,1,208,135Z" transform="translate(-98)"/><path class="cls-2" d="M180.9,100.9a35,35,0,0,1-42,42,35,35,0,1,0,42-42Z" transform="translate(-98)"/><path class="cls-1" d="M308,65a45,45,0,1,1-45-45A44.9,44.9,0,0,1,308,65Z" transform="translate(-98)"/><path class="cls-2" d="M278.9,22.9a44.4,44.4,0,0,1,2.9,15.9,44.9,44.9,0,0,1-45,45,44.4,44.4,0,0,1-15.9-2.9,45,45,0,1,0,58-58Z" transform="translate(-98)"/><path class="cls-1" d="M198,65a15,15,0,1,1-15-15A15,15,0,0,1,198,65Z" transform="translate(-98)"/><path class="cls-3" d="M303,259.8V212l-34-14.8L231,212v47.8a125.1,125.1,0,0,0-89,119.7c0,69,56.4,125.2,125.4,125A125,125,0,0,0,303,259.8Z" transform="translate(-98)"/><path class="cls-4" d="M388.4,409.5a124.9,124.9,0,0,1-231.9,28.2,124.8,124.8,0,0,0,178-74.6c9.4-31.4-8.2-64.8-39.6-74.4l-.5-.2A30,30,0,0,1,273,259.8V198.9L303,212v47.8c51.5,15.4,89,61.7,89,119.7C392,389.6,388.9,409.5,388.4,409.5Z" transform="translate(-98)"/><path class="cls-4" d="M305.6,182H228.5a15,15,0,0,0-15,15.7A15.3,15.3,0,0,0,228.9,212h76.7a15,15,0,0,0,0-30Z" transform="translate(-98)"/><path class="cls-5" d="M328.2,379.5,205.5,451.8A94.8,94.8,0,0,0,267,474.5h.3a95.2,95.2,0,0,0,94.7-95Z" transform="translate(-98)"/><path class="cls-6" d="M328.2,379.5h-62c-15.9-19.7-31.9-39-54.2-39a40,40,0,0,0-39.9,39H172v1c0,.3.1.7.1,1v1.1a94.9,94.9,0,0,0,33.4,69.2c3.2.2,6.4.4,9.6.4A125,125,0,0,0,328.2,379.5Z" transform="translate(-98)"/><path class="cls-5" d="M322,340.5c-22.6,0-38.8,20-55,40,16.2,20,32.4,40,55,40a40,40,0,0,0,0-80Z" transform="translate(-98)"/><path d="M183,87.5A22.5,22.5,0,1,0,160.5,65,22.5,22.5,0,0,0,183,87.5Zm0-30a7.5,7.5,0,1,1-7.5,7.5A7.6,7.6,0,0,1,183,57.5Z" transform="translate(-98)"/><path d="M353,92.5a7.5,7.5,0,1,1-7.5-7.5A7.6,7.6,0,0,1,353,92.5Z" transform="translate(-98)"/><path d="M213,7.5a7.5,7.5,0,0,1-15,0,7.5,7.5,0,0,1,15,0Z" transform="translate(-98)"/><path d="M113,107.5a7.5,7.5,0,1,1-7.5-7.5A7.6,7.6,0,0,1,113,107.5Z" transform="translate(-98)"/><path d="M413,122.5a7.5,7.5,0,1,1-7.5-7.5A7.6,7.6,0,0,1,413,122.5Z" transform="translate(-98)"/><path d="M310.5,254.3V218.9c9.9-2.1,17.9-10.9,17.6-23a22.8,22.8,0,0,0-22.9-21.4H228.5a21.8,21.8,0,0,0-10.7,2.7c-9.3-14.2,10.7-27.3,20.1-14.7a14.6,14.6,0,0,0,11.6,5.9h.1a14.5,14.5,0,0,0,10.4-4.6,52,52,0,0,1,38-16.3h0a52.3,52.3,0,0,1,52.5,51v55.6a7.7,7.7,0,0,0,3.1,6.1,21.4,21.4,0,0,1,8.4,12.2,7.4,7.4,0,0,0,7.2,5.6l1.9-.2a7.6,7.6,0,0,0,5.4-9.2h0a37,37,0,0,0-11-18.2V198.2A67.6,67.6,0,0,0,298,132.5h0A67.1,67.1,0,0,0,249.6,153a27.6,27.6,0,0,0-23-10.5h0a27.7,27.7,0,0,0-26.1,27.3h0s-.9,8.9,7.1,18.8A22,22,0,0,0,206,197a22.3,22.3,0,0,0,17.5,21.9v35.4A132.5,132.5,0,0,0,267,512h.5c72.8-.2,132-59.7,132-132.5A132.8,132.8,0,0,0,310.5,254.3ZM267.4,497H267c-64.7,0-117.5-52.7-117.5-117.5a117.6,117.6,0,0,1,78.9-111,15,15,0,0,0,10.1-14.2V219.5H252a7.5,7.5,0,0,0,0-15H228.5a7.5,7.5,0,0,1,0-15h76.7a7.8,7.8,0,0,1,7.9,7.5,7.6,7.6,0,0,1-7.5,7.5H282a7.5,7.5,0,0,0,0,15h13.5v34.8a15.1,15.1,0,0,0,10.2,14.2,117.7,117.7,0,0,1,78.8,111C384.5,444.1,332,496.8,267.4,497Z" transform="translate(-98)"/><path d="M179.6,177a7.6,7.6,0,0,0,6.3-8.6,7.5,7.5,0,0,0-8.6-6.2,27.5,27.5,0,1,1,22.9-31.5,7.3,7.3,0,0,0,8.5,6.2,7.6,7.6,0,0,0,6.3-8.6A42.5,42.5,0,1,0,179.6,177Z" transform="translate(-98)"/><path d="M263,117.5A52.5,52.5,0,1,0,210.5,65,52.6,52.6,0,0,0,263,117.5Zm0-90A37.5,37.5,0,1,1,225.5,65,37.5,37.5,0,0,1,263,27.5Z" transform="translate(-98)"/><path d="M282.3,351.9A7.5,7.5,0,1,0,292.4,363c11.7-10.6,20.3-15,29.6-15a32.5,32.5,0,1,1,0,65c-40.1,0-60.2-80-110-80a47.6,47.6,0,0,0-33.2,13.5c-9.2,9-14.7,21.5-14.2,36.4a102.5,102.5,0,0,0,204.9-3.4c0-24-20.4-46.5-47.5-46.5C305.3,333,292.6,342.6,282.3,351.9ZM267,467a87.2,87.2,0,0,1-87.5-86.4c.7-19.8,16-32.6,32.5-32.6,40.3,0,60.2,80,110,80a46.8,46.8,0,0,0,20.8-4.8A87.7,87.7,0,0,1,267,467Z" transform="translate(-98)"/><path d="M214.5,384.5A7.5,7.5,0,1,1,207,377,7.5,7.5,0,0,1,214.5,384.5Z" transform="translate(-98)"/><path d="M259.5,409.5A7.5,7.5,0,1,1,252,402,7.5,7.5,0,0,1,259.5,409.5Z" transform="translate(-98)"/><path d="M224.5,424.5A7.5,7.5,0,1,1,217,417,7.5,7.5,0,0,1,224.5,424.5Z" transform="translate(-98)"/></svg>