<svg id="Capa_1" data-name="Capa 1" xmlns="http://www.w3.org/2000/svg" viewBox="0 0 512 512"><defs><style>.cls-1{fill:#f44a82;}.cls-2{fill:#78caef;}.cls-3{fill:#f9c55f;}.cls-4{fill:#dda645;}.cls-5{fill:#cb9aed;}</style></defs><circle class="cls-1" cx="391.8" cy="120.2" r="26"/><circle class="cls-2" cx="81.8" cy="430.2" r="37"/><circle class="cls-3" cx="256" cy="256" r="80"/><circle class="cls-4" cx="210.5" cy="281.6" r="28.1"/><circle class="cls-5" cx="256" cy="392" r="20"/><circle class="cls-4" cx="296.9" cy="224.1" r="28.1"/><path d="M327.8,201.8a18.1,18.1,0,0,0-1.8-2.3,89.8,89.8,0,1,0,1.8,2.3Zm-18.1,35.1a18.2,18.2,0,0,1-25.6,0,18.1,18.1,0,0,1,25.6-25.6l1,1.1.7.9A18.1,18.1,0,0,1,309.7,236.9ZM256,326a70.2,70.2,0,0,1-63-39.4c0-.4-.1-.7-.1-1a17.5,17.5,0,0,1,2.3-13.6,17.9,17.9,0,0,1,24.9-5.7,17.3,17.3,0,0,1,8,11.2,10.1,10.1,0,0,0,12,7.6,10,10,0,0,0,7.5-12,37.6,37.6,0,0,0-16.8-23.8,38.4,38.4,0,0,0-28.8-4.9,39,39,0,0,0-15.9,7.9,70,70,0,0,1,93.5-62.2,40,40,0,0,0-9.6,7A38.1,38.1,0,1,0,323.8,251l1.9-1.9c.2,2.2.3,4.6.3,6.9A70.1,70.1,0,0,1,256,326Z"/><path d="M256,458c111.4,0,202-90.6,202-202a199.2,199.2,0,0,0-16.8-80.7,10,10,0,1,0-18.3,8A180.7,180.7,0,0,1,438,256c0,100.4-81.6,182-182,182S74,356.4,74,256,155.6,74,256,74a185.1,185.1,0,0,1,41.4,4.7,9.9,9.9,0,0,0,12-7.4,10.1,10.1,0,0,0-7.5-12.1A207.1,207.1,0,0,0,256,54C144.6,54,54,144.6,54,256a201.1,201.1,0,0,0,49.9,132.8,45.9,45.9,0,0,0-22.1-5.6,47.1,47.1,0,1,0,41.5,25A201.3,201.3,0,0,0,256,458Zm-174.2-.8a27,27,0,1,1,27-27A27,27,0,0,1,81.8,457.2Z"/><path d="M331.8,90.5a10.6,10.6,0,0,0,4.2.9,9.8,9.8,0,0,0,9-5.9,9.9,9.9,0,0,0-4.9-13.2l-.3-.2a10,10,0,0,0-8.3,18.3Z"/><path d="M152.8,152.8c-57,56.9-57,149.5,0,206.4A143.2,143.2,0,0,0,193.6,388a9.4,9.4,0,0,0,4.3,1,10,10,0,0,0,4.3-19,126.2,126.2,0,0,1-35.3-24.9c-49.1-49.1-49.1-129.1,0-178.2s129.1-49.1,178.2,0,49.1,129.1,0,178.2a133,133,0,0,1-10.5,9.4,10,10,0,1,0,12.5,15.6,138.4,138.4,0,0,0,12.1-10.9c57-56.9,57-149.5,0-206.4S209.7,95.8,152.8,152.8Z"/><path d="M307.9,370.9l-.7.3a10,10,0,0,0,4.1,19.1,10.1,10.1,0,0,0,4.1-.9l.8-.3a10,10,0,0,0-8.3-18.2Z"/><path d="M437,75A255.9,255.9,0,0,0,75,75,256.1,256.1,0,0,0,32.8,381.5a10,10,0,0,0,17.4-9.8A237.2,237.2,0,0,1,20,256C20,125.9,125.9,20,256,20S492,125.9,492,256,386.1,492,256,492a237.1,237.1,0,0,1-112-28.2,10,10,0,1,0-9.5,17.6A256.8,256.8,0,0,0,256,512,256.1,256.1,0,0,0,512,256,254,254,0,0,0,437,75Z"/><path d="M391.8,156.2a36,36,0,1,0-36-36A36,36,0,0,0,391.8,156.2Zm0-52a16,16,0,1,1-16,16A16,16,0,0,1,391.8,104.2Z"/><path d="M226,392a30,30,0,1,0,30-30A30.1,30.1,0,0,0,226,392Zm40,0a10,10,0,1,1-10-10A10,10,0,0,1,266,392Z"/><path d="M290,284a9.9,9.9,0,1,0,7.1,2.9A10.5,10.5,0,0,0,290,284Z"/><path d="M223.4,211a10,10,0,1,0,0,20,10.3,10.3,0,0,0,7.1-2.9,10.1,10.1,0,0,0,0-14.2A10.5,10.5,0,0,0,223.4,211Z"/></svg>