<svg id="Layer_1" data-name="Layer 1" xmlns="http://www.w3.org/2000/svg" viewBox="0 0 487.3 363.1"><defs><style>.cls-1{fill:#4bc999;}.cls-2{fill:#efefef;}.cls-3{fill:#f44a82;}</style></defs><path class="cls-1" d="M494.6,53.6V301.2A32.8,32.8,0,0,1,461.8,334H278.3l-13,25.7L256,378l-9.3-18.3-13-25.7H50.2a32.8,32.8,0,0,1-32.8-32.8V53.6A32.8,32.8,0,0,1,50.2,20.8H461.8a32.8,32.8,0,0,1,32.8,32.8Z" transform="translate(-12.4 -15.8)"/><path class="cls-2" d="M50.2,63.6V291.2a10,10,0,0,0,10,10H451.8a10,10,0,0,0,10-10V63.6a10,10,0,0,0-10-10H60.2a10,10,0,0,0-10,10Z" transform="translate(-12.4 -15.8)"/><path class="cls-3" d="M410.1,166.7l11.9-6.9a66.6,66.6,0,0,0-16.2-28.1l-11.9,6.9a52,52,0,0,0-18.9-11V113.9a67,67,0,0,0-32.4,0v13.8a51.7,51.7,0,0,0-18.7,10.9L312,131.7a65.6,65.6,0,0,0-16.2,28l11.9,6.9a52.9,52.9,0,0,0,0,21.7l-11.9,6.9a66.8,66.8,0,0,0,16.3,28.1l11.9-6.9a51.5,51.5,0,0,0,18.6,10.7v13.8a65.8,65.8,0,0,0,32.4,0V227.2a52.2,52.2,0,0,0,18.8-10.9l11.9,6.9a64.4,64.4,0,0,0,16.2-28.1l-11.8-6.8a50.7,50.7,0,0,0,0-21.6Zm-51.2,36.1a25.4,25.4,0,1,1,25.4-25.4A25.3,25.3,0,0,1,358.9,202.8Z" transform="translate(-12.4 -15.8)"/><path d="M264.2,372.1,281.4,339H461.8a37.9,37.9,0,0,0,37.8-37.8V53.6a37.9,37.9,0,0,0-37.8-37.8H50.2A37.9,37.9,0,0,0,12.4,53.6V301.2A37.9,37.9,0,0,0,50.2,339H230.6l18.5,33.5C252.7,381.3,261,380.9,264.2,372.1ZM233.7,329H50.2a27.9,27.9,0,0,1-27.8-27.8V53.6A27.9,27.9,0,0,1,50.2,25.8H461.8a27.9,27.9,0,0,1,27.8,27.8V301.2A27.9,27.9,0,0,1,461.8,329H278.3a5.1,5.1,0,0,0-4.5,2.8c-7.3,14.5-17.2,34.1-17.8,35.1l-17.8-35.1a5.1,5.1,0,0,0-4.5-2.8Z" transform="translate(-12.4 -15.8)"/><path d="M105.6,110.3h95c6.6,0,6.6-10,0-10h-95C99,100.3,99,110.3,105.6,110.3Z" transform="translate(-12.4 -15.8)"/><path d="M200.6,148.4h-95c-6.6,0-6.6,10,0,10h95C207.2,158.4,207.2,148.4,200.6,148.4Z" transform="translate(-12.4 -15.8)"/><path d="M200.6,196.5h-95c-6.6,0-6.6,10,0,10h95C207.2,206.5,207.2,196.5,200.6,196.5Z" transform="translate(-12.4 -15.8)"/><path d="M200.6,244.6h-95c-6.6,0-6.6,10,0,10h95C207.2,254.6,207.2,244.6,200.6,244.6Z" transform="translate(-12.4 -15.8)"/><path d="M302.1,169.2a61.5,61.5,0,0,0,.1,16.6c-8.4,4.8-12.5,6.1-11.2,10.8a71.6,71.6,0,0,0,17.5,30.1,5,5,0,0,0,6.1.9l8.9-5.2a52.5,52.5,0,0,0,14.1,8.2c0,9.7-1,13.9,3.8,15.1a70.7,70.7,0,0,0,34.8,0,4.8,4.8,0,0,0,3.8-4.8V230.7a55.1,55.1,0,0,0,14.3-8.3c8.4,4.8,11.5,7.8,15,4.3a71.3,71.3,0,0,0,17.5-30.2c1.3-4.7-2.9-6-11.2-10.8a57,57,0,0,0,0-16.5c8.4-4.8,12.5-6.1,11.2-10.8a71.7,71.7,0,0,0-17.4-30.2,5,5,0,0,0-6.1-.8l-8.8,5.1a60.2,60.2,0,0,0-14.5-8.4c0-9.6,1-13.8-3.8-15a70.7,70.7,0,0,0-34.8,0c-4.8,1.2-3.8,5.5-3.8,15.1a53.4,53.4,0,0,0-14.2,8.3c-8.4-4.8-11.6-7.8-15-4.3A69.7,69.7,0,0,0,291,158.4c-1.3,4.7,2.8,6,11.1,10.8ZM313,138c8,4.7,10.8,7.4,14.3,4.3,12.7-11.5,20.3-7.9,20.3-14.6V118a62.5,62.5,0,0,1,22.4-.1c0,9.3-.9,13.1,3.5,14.5,16.1,5.2,17.1,13.9,22.9,10.5l8.4-4.9A62.3,62.3,0,0,1,416,157.5l-8.4,4.8c-5.7,3.4,1.1,7.9-2.4,25-1,4.5,2.8,5.6,10.8,10.2a59.2,59.2,0,0,1-11.3,19.4c-8-4.7-10.9-7.3-14.3-4.3C377.8,224,370,220.5,370,227.2v9.7a62.5,62.5,0,0,1-22.4,0c0-9.3.9-13.1-3.5-14.6-15.8-5.1-16.8-13.6-22.6-10.3l-8.4,4.9a59.2,59.2,0,0,1-11.3-19.4c8.1-4.6,11.8-5.7,10.8-10.2-3.5-16.5,3.3-21.7-2.4-25l-8.4-4.9A57.2,57.2,0,0,1,313,138Z" transform="translate(-12.4 -15.8)"/><path d="M358.9,207.8a30.4,30.4,0,1,0-30.4-30.4A30.4,30.4,0,0,0,358.9,207.8Zm0-50.8a20.4,20.4,0,1,1-20.4,20.4A20.4,20.4,0,0,1,358.9,157Z" transform="translate(-12.4 -15.8)"/><circle cx="243.6" cy="177.8" r="5"/><path d="M451.8,306.2a15,15,0,0,0,15-15V63.6a15,15,0,0,0-15-15H60.2a15.1,15.1,0,0,0-15,15V291.2a15.1,15.1,0,0,0,15,15Zm-396.6-15V63.6a5.1,5.1,0,0,1,5-5H251v115c0,6.6,10,6.6,10,0V58.6H451.8a5.1,5.1,0,0,1,5,5V291.2a5.1,5.1,0,0,1-5,5H261V213.6c0-6.6-10-6.6-10,0v82.6H60.2a5.1,5.1,0,0,1-5-5Z" transform="translate(-12.4 -15.8)"/></svg>