<svg id="Capa_1" data-name="Capa 1" xmlns="http://www.w3.org/2000/svg" viewBox="0 0 512 512"><defs><style>.cls-1{fill:#4bc999;}.cls-2{fill:#fff;}.cls-3{fill:#78caef;}</style></defs><path class="cls-1" d="M502,502V483.9A90.9,90.9,0,0,0,411.1,393H351a39,39,0,0,1-39-39V336.3H200V354a39,39,0,0,1-39,39H100.9A90.9,90.9,0,0,0,10,483.9V502Z"/><path class="cls-2" d="M98,502V485.9a24,24,0,0,0-24-24h0a24,24,0,0,0-24,24V502Z"/><path class="cls-2" d="M455,502V485.9a24.1,24.1,0,0,0-24-24h0a24,24,0,0,0-24,24V502Z"/><path class="cls-1" d="M403,143.4C403,48.2,337.2,10,256,10S109,48.2,109,143.4s65.8,211.7,147,211.7S403,238.7,403,143.4Z"/><path class="cls-3" d="M223.8,159.3c-6.8-24.5-27.9-40.3-47.1-35.4s-29.3,28.7-22.5,53.2,27.9,40.3,47.1,35.4S230.6,183.8,223.8,159.3Z"/><path class="cls-3" d="M288.2,159.3c6.8-24.5,27.9-40.3,47.1-35.4s29.3,28.7,22.5,53.2-27.9,40.3-47.1,35.4S281.4,183.8,288.2,159.3Z"/><path d="M233.4,156.6h0c-8.2-29.6-34.8-48.6-59.2-42.4-10.4,2.7-19.2,9.6-25,19.5-7.5,13-9.2,29.8-4.6,46.1,7.2,25.8,28.3,43.6,49.8,43.6a37.9,37.9,0,0,0,9.4-1.2c10.4-2.7,19.2-9.6,25-19.5C236.3,189.7,238,172.9,233.4,156.6Zm-21.9,36c-2.2,3.8-6.1,8.5-12.6,10.2-13.8,3.5-29.8-9.5-35-28.4-3.1-11-2.1-22.5,2.6-30.7,2.2-3.7,6.1-8.4,12.6-10.1a18.8,18.8,0,0,1,4.6-.6c12.6,0,25.8,12.2,30.4,29C217.2,173,216.2,184.4,211.5,192.6Z"/><path d="M367.4,179.8c4.6-16.3,2.9-33.1-4.6-46.1-5.8-9.9-14.6-16.8-25-19.5-24.4-6.2-51,12.8-59.2,42.4h0c-4.6,16.3-2.9,33.1,4.6,46.1,5.8,9.9,14.6,16.8,25,19.5a37.9,37.9,0,0,0,9.4,1.2C339.1,223.4,360.2,205.6,367.4,179.8Zm-19.3-5.4c-4.6,16.8-17.8,29-30.4,29a18.8,18.8,0,0,1-4.6-.6c-6.5-1.7-10.4-6.4-12.6-10.2-4.7-8.2-5.7-19.6-2.6-30.6h0c5.2-18.9,21.2-31.9,35-28.4,6.5,1.7,10.4,6.4,12.6,10.1C350.2,151.9,351.2,163.4,348.1,174.4Z"/><path d="M186.5,72.4a8.3,8.3,0,0,0,3.4-.7c25.2-9.3,63.4-12.5,97.4-8.1a10,10,0,0,0,2.6-19.8C252.4,38.9,211.4,42.4,183,53a10,10,0,0,0,3.5,19.4Z"/><path d="M322.3,71.7a8.4,8.4,0,0,0,3.5.7,10.2,10.2,0,0,0,9.4-6.5A10.1,10.1,0,0,0,329.3,53h-.2a10,10,0,0,0-6.8,18.8Z"/><path d="M289.6,85.5c-18.8-7-48.2-7-66.9,0a10,10,0,0,0,6.9,18.7c14.4-5.3,38.7-5.3,53,0a10.3,10.3,0,0,0,3.5.6,10.1,10.1,0,0,0,9.4-6.5A10,10,0,0,0,289.6,85.5Z"/><path d="M20.8,439.8a10,10,0,0,0-13.1,5.4A100.5,100.5,0,0,0,0,483.9V502a10,10,0,0,0,20,0V483.9a80.2,80.2,0,0,1,6.2-31A10,10,0,0,0,20.8,439.8Z"/><path d="M43.2,427.2a10,10,0,1,0-14.3-14l-.2.2a10,10,0,0,0,.2,14.2,10,10,0,0,0,14.1-.2Z"/><path d="M411.1,383H351a29,29,0,0,1-29-29V341.5c16.7-12.4,32.4-29.6,46.3-51.1,28-43.1,44.7-98,44.7-147S397.2,58.2,366.2,33.2C339.3,11.5,301.2,0,256,0S172.7,11.5,145.8,33.2C114.8,58.2,99,95.3,99,143.4s16.7,103.9,44.7,147c13.9,21.5,29.6,38.7,46.3,51.1V354a29,29,0,0,1-29,29H100.9a100.7,100.7,0,0,0-41.2,8.8,10,10,0,0,0,4.1,19.1,9.8,9.8,0,0,0,4.1-.9,81.1,81.1,0,0,1,33-7H161a49.1,49.1,0,0,0,49-49h0c14.9,7.3,30.3,11.2,46,11.2s31.1-3.9,46-11.2h0a49.1,49.1,0,0,0,49,49h60.1A81,81,0,0,1,492,483.9V502a10,10,0,0,0,20,0V483.9A101.1,101.1,0,0,0,411.1,383ZM160.5,279.5c-26-39.9-41.5-90.8-41.5-136.1C119,36,204.9,20,256,20S393,36,393,143.4c0,45.3-15.5,96.2-41.5,136.1-27,41.7-61.8,65.6-95.5,65.6S187.5,321.2,160.5,279.5Z"/><path d="M74,451.9a34.1,34.1,0,0,0-34,34V502a10,10,0,0,0,20,0V485.9a14,14,0,0,1,28,0V502a10,10,0,0,0,20,0V485.9A34.1,34.1,0,0,0,74,451.9Z"/><path d="M431,451.9a34,34,0,0,0-34,34V502a10,10,0,0,0,20,0V485.9a14,14,0,0,1,28,0V502a10,10,0,0,0,20,0V485.9A34.1,34.1,0,0,0,431,451.9Z"/><path d="M315.5,417.7A22.3,22.3,0,0,0,293.3,440a10,10,0,0,0,20,0,2.3,2.3,0,0,1,2.2-2.3,10,10,0,0,0,0-20Z"/><path d="M196.5,417.7a10,10,0,0,0,0,20,2.3,2.3,0,0,1,2.2,2.3,10,10,0,0,0,20,0A22.3,22.3,0,0,0,196.5,417.7Z"/><path d="M271,269.8H241a10,10,0,1,0,0,20h30a10,10,0,0,0,0-20Z"/></svg>