<svg id="Layer_1" data-name="Layer 1" xmlns="http://www.w3.org/2000/svg" viewBox="0 0 512 493.6"><defs><style>.cls-1{fill:#f9c55f;}.cls-2{fill:#bfe8f7;}.cls-3{fill:#f44a82;}.cls-4{fill:#78caef;}</style></defs><path class="cls-1" d="M317.5,484.6a960.1,960.1,0,0,1-282.2,0,22.8,22.8,0,0,1-19.5-20.7,2566.5,2566.5,0,0,1,0-405.6A22.9,22.9,0,0,1,35.3,37.6a960.1,960.1,0,0,1,282.2,0,22.8,22.8,0,0,1,19.4,20.7,2542.8,2542.8,0,0,1,0,405.6A22.7,22.7,0,0,1,317.5,484.6Z" transform="translate(0 -9.2)"/><path class="cls-2" d="M282,217.8H70.7a20.6,20.6,0,0,1-20.6-20.7V99.7A20.7,20.7,0,0,1,70.7,79H282a20.7,20.7,0,0,1,20.7,20.7v97.4A20.6,20.6,0,0,1,282,217.8Z" transform="translate(0 -9.2)"/><path class="cls-3" d="M102.6,295.4H62.1a12,12,0,0,1-12-12V262.6a11.9,11.9,0,0,1,12-12h40.5a12,12,0,0,1,12,12v20.8A12,12,0,0,1,102.6,295.4Z" transform="translate(0 -9.2)"/><path class="cls-3" d="M290.7,295.4H250.2a12,12,0,0,1-12-12V262.6a12,12,0,0,1,12-12h40.5a12,12,0,0,1,12,12v20.8A12,12,0,0,1,290.7,295.4Z" transform="translate(0 -9.2)"/><path class="cls-3" d="M196.6,295.4H156.1a12,12,0,0,1-12-12V262.6a12,12,0,0,1,12-12h40.5a11.9,11.9,0,0,1,12,12v20.8A12,12,0,0,1,196.6,295.4Z" transform="translate(0 -9.2)"/><circle class="cls-3" cx="176.4" cy="388.5" r="67.1"/><path class="cls-4" d="M419.2,202.6H388v92a15.6,15.6,0,0,0,15.6,15.6h0a15.6,15.6,0,0,0,15.6-15.6v-92Z" transform="translate(0 -9.2)"/><path class="cls-3" d="M495.6,130.1H464.4v92A15.6,15.6,0,0,0,480,237.7h0a15.6,15.6,0,0,0,15.6-15.6v-92Z" transform="translate(0 -9.2)"/><path d="M318.7,29.9a976.4,976.4,0,0,0-284.6,0,30.4,30.4,0,0,0-26,27.8A2568.9,2568.9,0,0,0,4.2,408.6a8,8,0,0,0,8.3,7.4,7.9,7.9,0,0,0,7.3-8.3A2552.5,2552.5,0,0,1,23.6,59,14.9,14.9,0,0,1,36.4,45.4a952,952,0,0,1,280,0A14.9,14.9,0,0,1,329.2,59a2574.1,2574.1,0,0,1,0,404.3,14.9,14.9,0,0,1-12.8,13.6,958.9,958.9,0,0,1-280,0,14.9,14.9,0,0,1-12.8-13.6c-.7-9.2-1.4-18.6-2.1-27.9A7.8,7.8,0,0,0,6,436.5c.6,9.3,1.3,18.8,2.1,28a30.3,30.3,0,0,0,26,27.8,970.4,970.4,0,0,0,142.3,10.5,970.4,970.4,0,0,0,142.3-10.5,30.3,30.3,0,0,0,26-27.8,2581.7,2581.7,0,0,0,0-406.8A30.4,30.4,0,0,0,318.7,29.9Z" transform="translate(0 -9.2)"/><path d="M310.5,99.7A28.6,28.6,0,0,0,282,71.2H70.7A28.5,28.5,0,0,0,42.3,99.7v97.4a28.5,28.5,0,0,0,28.4,28.5H236.2a7.8,7.8,0,1,0,0-15.6H70.7a12.8,12.8,0,0,1-12.8-12.9V99.7A12.8,12.8,0,0,1,70.7,86.8H282a12.9,12.9,0,0,1,12.9,12.9v97.4A12.9,12.9,0,0,1,282,210H262.2a7.8,7.8,0,0,0,0,15.6H282a28.6,28.6,0,0,0,28.5-28.5Z" transform="translate(0 -9.2)"/><path d="M177.3,108.8a7.8,7.8,0,0,0-7.8,7.8v63.7a7.8,7.8,0,0,0,7.8,7.8h27.1a7.8,7.8,0,0,0,7.8-7.8V116.6a7.8,7.8,0,0,0-7.8-7.8Zm19.3,63.7H185.1V124.4h11.5Z" transform="translate(0 -9.2)"/><path d="M128,188.1a7.8,7.8,0,0,0,7.8-7.8V116.6a7.8,7.8,0,0,0-7.8-7.8H100.9a7.8,7.8,0,0,0,0,15.6h19.3v55.9A7.8,7.8,0,0,0,128,188.1Z" transform="translate(0 -9.2)"/><path d="M251.9,188.1a7.8,7.8,0,0,0,7.8-7.8V116.6a7.8,7.8,0,0,0-7.8-7.8H224.7a7.8,7.8,0,1,0,0,15.6h19.4v55.9A7.8,7.8,0,0,0,251.9,188.1Z" transform="translate(0 -9.2)"/><path d="M161.3,131.8a7.8,7.8,0,1,0-4.7,8.7A7.9,7.9,0,0,0,161.3,131.8Z" transform="translate(0 -9.2)"/><path d="M160.8,160.6a8,8,0,0,0-7.6-4.9,7.9,7.9,0,0,0-6.9,5.3c-2.4,6.8,5.4,13,11.5,9.1A7.7,7.7,0,0,0,160.8,160.6Z" transform="translate(0 -9.2)"/><path d="M42.3,283.4a19.8,19.8,0,0,0,19.8,19.8h40.5a19.8,19.8,0,0,0,19.8-19.8V262.6a19.8,19.8,0,0,0-19.8-19.8H62.1a19.8,19.8,0,0,0-19.8,19.8Zm15.6-20.8a4.2,4.2,0,0,1,4.2-4.2h40.5a4.2,4.2,0,0,1,4.2,4.2v20.8a4.2,4.2,0,0,1-4.2,4.2H62.1a4.2,4.2,0,0,1-4.2-4.2Z" transform="translate(0 -9.2)"/><path d="M310.5,283.4V262.6a19.8,19.8,0,0,0-19.8-19.8H250.2a19.8,19.8,0,0,0-19.8,19.8v20.8a19.8,19.8,0,0,0,19.8,19.8h40.5A19.8,19.8,0,0,0,310.5,283.4Zm-64.5,0V262.6a4.2,4.2,0,0,1,4.2-4.2h40.5a4.2,4.2,0,0,1,4.2,4.2v20.8a4.2,4.2,0,0,1-4.2,4.2H250.2A4.2,4.2,0,0,1,246,283.4Z" transform="translate(0 -9.2)"/><path d="M196.6,303.2a19.8,19.8,0,0,0,19.8-19.8V262.6a19.8,19.8,0,0,0-19.8-19.8H156.1a19.8,19.8,0,0,0-19.8,19.8v20.8a19.8,19.8,0,0,0,19.8,19.8Zm-44.7-19.8V262.6a4.2,4.2,0,0,1,4.2-4.2h40.5a4.2,4.2,0,0,1,4.2,4.2v20.8a4.2,4.2,0,0,1-4.2,4.2H156.1A4.2,4.2,0,0,1,151.9,283.4Z" transform="translate(0 -9.2)"/><path d="M123.5,450.6a74.8,74.8,0,0,0,105.8,0h0a74.8,74.8,0,0,0,0-105.8h0A74.8,74.8,0,0,0,123.5,450.6Zm94.8-11a59.3,59.3,0,0,1-77.9,5.1l83-83A59.3,59.3,0,0,1,218.3,439.6ZM176.4,338.5a59.2,59.2,0,0,1,36,12.1l-83.1,83.1a59.2,59.2,0,0,1,47.1-95.2Z" transform="translate(0 -9.2)"/><path d="M251.7,328.6a7.8,7.8,0,0,0-14.8-1.6,7.7,7.7,0,0,0,1.4,8.4,7.8,7.8,0,0,0,9,1.8A8,8,0,0,0,251.7,328.6Z" transform="translate(0 -9.2)"/><path d="M269,366c6.6,0,10.2-8.2,5.7-13.1a7.9,7.9,0,0,0-9.2-1.7A7.8,7.8,0,0,0,269,366Z" transform="translate(0 -9.2)"/><path d="M266.4,400.7a7.9,7.9,0,0,0,14.4.1,7.8,7.8,0,0,0-11.1-9.8A7.8,7.8,0,0,0,266.4,400.7Z" transform="translate(0 -9.2)"/><path d="M365.2,399.9h3.9a42.4,42.4,0,0,0,42.3-42.4V334.4a7.8,7.8,0,0,0-15.6,0v23.1a26.8,26.8,0,0,1-26.7,26.8h-3.9a7.8,7.8,0,0,0,0,15.6Z" transform="translate(0 -9.2)"/><path d="M480,254.8a7.8,7.8,0,0,0-7.8,7.8V379.7a57.6,57.6,0,0,1-57.6,57.6H362.1a7.8,7.8,0,0,0,0,15.6h52.5a73.2,73.2,0,0,0,73.2-73.2V262.6A7.8,7.8,0,0,0,480,254.8Z" transform="translate(0 -9.2)"/><path d="M379.4,210.4h.8v84.2a23.4,23.4,0,1,0,46.8,0V210.4h.8a7.8,7.8,0,1,0,0-15.6H379.4a7.8,7.8,0,1,0,0,15.6Zm32,0v84.2a7.8,7.8,0,1,1-15.6,0V210.4Z" transform="translate(0 -9.2)"/><path d="M403.6,186.7a7.8,7.8,0,0,0,7.8-7.8V89.5a7.8,7.8,0,1,0-15.6,0v89.4A7.8,7.8,0,0,0,403.6,186.7Z" transform="translate(0 -9.2)"/><path d="M504.2,122.3H455.9a7.8,7.8,0,1,0,0,15.6h.7v84.2a23.4,23.4,0,1,0,46.8,0V137.9h.8a7.8,7.8,0,1,0,0-15.6Zm-16.4,99.8a7.8,7.8,0,1,1-15.6,0V137.9h15.6Z" transform="translate(0 -9.2)"/><path d="M480,114.2a7.8,7.8,0,0,0,7.8-7.8V17a7.8,7.8,0,0,0-15.6,0v89.4A7.8,7.8,0,0,0,480,114.2Z" transform="translate(0 -9.2)"/></svg>