<svg id="Capa_1" data-name="Capa 1" xmlns="http://www.w3.org/2000/svg" viewBox="0 0 512 512"><defs><style>.cls-1{fill:#f44a82;}.cls-2{fill:#bfe8f7;}</style></defs><circle class="cls-1" cx="327" cy="474" r="28"/><circle class="cls-1" cx="206.4" cy="353.4" r="28"/><circle class="cls-1" cx="474" cy="327" r="28"/><circle class="cls-1" cx="353.4" cy="206.4" r="28"/><circle class="cls-1" cx="38" cy="38" r="28"/><circle class="cls-1" cx="272.1" cy="122.9" r="28"/><circle class="cls-1" cx="174.4" cy="55.2" r="28"/><rect class="cls-2" x="445.7" y="19.7" width="46.6" height="46.64" transform="translate(107 344.2) rotate(-45)"/><rect class="cls-2" x="19.7" y="445.7" width="46.6" height="46.64" transform="translate(-319.1 167.7) rotate(-45)"/><path d="M474,289a37.2,37.2,0,0,0-18.8,5.1l-68.8-68.8A38,38,0,0,0,335,173.2l-30.2-31a38.5,38.5,0,0,0,5.3-19.3,38,38,0,0,0-62.9-28.7L209.8,69a36.7,36.7,0,0,0,2.6-13.7,38,38,0,0,0-72.7-15.5L75.6,32.3a38.2,38.2,0,1,0-2.4,19.9l63.5,7.4a37.9,37.9,0,0,0,61.2,25.5l38.2,25.7a37,37,0,0,0-2,12.1,38,38,0,0,0,38,38,38.5,38.5,0,0,0,18.4-4.8l30.2,31a37.5,37.5,0,0,0-5.3,19.3,38.3,38.3,0,0,0,5.9,20.4l-50.5,50.5a10,10,0,0,0,0,14.1,9.8,9.8,0,0,0,14.1,0l51.2-51.1a38.7,38.7,0,0,0,17.3,4.1,37.2,37.2,0,0,0,18.8-5L441,308.2A38,38,0,1,0,474,289ZM38,56A18,18,0,1,1,56,38,18.1,18.1,0,0,1,38,56Zm118.4-.7a18,18,0,1,1,18,18A18,18,0,0,1,156.4,55.3Zm97.7,67.6a18,18,0,1,1,18,18A18,18,0,0,1,254.1,122.9Zm81.3,83.5a18,18,0,1,1,18,18A18.1,18.1,0,0,1,335.4,206.4ZM474,345a18,18,0,1,1,18-18A18,18,0,0,1,474,345Z" transform="translate(0 0)"/><path d="M397.9,389l-52,52a38,38,0,0,0-37.7,0l-68.8-68.8a37.4,37.4,0,0,0,5-18.8,37.9,37.9,0,1,0-19.1,33l68.8,68.8A37.2,37.2,0,0,0,289,474a38,38,0,0,0,76,0,37.2,37.2,0,0,0-5-18.8l52.1-52.1A10,10,0,1,0,397.9,389ZM188.4,353.4a18,18,0,1,1,18,18A18.1,18.1,0,0,1,188.4,353.4ZM327,492a18,18,0,1,1,18-18A18.1,18.1,0,0,1,327,492Z" transform="translate(0 0)"/><path d="M421.4,365.5a10,10,0,0,0-.2,14.2,10,10,0,0,0,14.1.2h0a10,10,0,0,0-13.9-14.4Z" transform="translate(0 0)"/><path d="M262.4,314a10.1,10.1,0,1,0-7.1,2.9A10.1,10.1,0,0,0,262.4,314Z" transform="translate(0 0)"/><path d="M461.9,83a10,10,0,0,0,7.1,3,10.2,10.2,0,0,0,7.1-3L509,50.1a10.2,10.2,0,0,0,3-7.1,10,10,0,0,0-3-7.1l-32.9-33A10.5,10.5,0,0,0,469,0a10.3,10.3,0,0,0-7.1,2.9l-33,33a10.1,10.1,0,0,0,0,14.2ZM469,24.2,487.8,43,469,61.8,450.2,43Z" transform="translate(0 0)"/><path d="M50.1,429a10.2,10.2,0,0,0-7.1-3,10,10,0,0,0-7.1,3l-33,32.9A10.5,10.5,0,0,0,0,469a10.3,10.3,0,0,0,2.9,7.1l33,33A10.3,10.3,0,0,0,43,512a10.1,10.1,0,0,0,7-2.9l33-33a10.1,10.1,0,0,0,0-14.2ZM43,487.8,24.1,469,43,450.2,61.8,469Z" transform="translate(0 0)"/><path d="M147.7,246.1h-14V231.7a10,10,0,1,0-20,0v14.4h-14a10,10,0,1,0,0,20h14v14.4a10,10,0,1,0,20,0V266.1h14a10,10,0,0,0,0-20Z" transform="translate(0 0)"/><path d="M473.9,158.9a10.1,10.1,0,0,0,0,14.2A10.3,10.3,0,0,0,481,176a10,10,0,0,0,0-20A10.3,10.3,0,0,0,473.9,158.9Z" transform="translate(0 0)"/><path d="M10,176a10.5,10.5,0,0,0,7.1-2.9,10.1,10.1,0,0,0,0-14.2A10.5,10.5,0,0,0,10,156a10.5,10.5,0,0,0-7.1,2.9,10.1,10.1,0,0,0,0,14.2A10.5,10.5,0,0,0,10,176Z" transform="translate(0 0)"/><path d="M143.7,438a10.3,10.3,0,0,0-7.1,2.9,10.1,10.1,0,0,0,0,14.2,10.3,10.3,0,0,0,7.1,2.9,10,10,0,0,0,0-20Z" transform="translate(0 0)"/></svg>